<?xml version="1.0" encoding="UTF-8" standalone="no"?>
<!-- Created with Inkscape (http://www.inkscape.org/) -->

<svg
   xmlns:dc="http://purl.org/dc/elements/1.1/"
   xmlns:cc="http://creativecommons.org/ns#"
   xmlns:rdf="http://www.w3.org/1999/02/22-rdf-syntax-ns#"
   xmlns:svg="http://www.w3.org/2000/svg"
   xmlns="http://www.w3.org/2000/svg"
   xmlns:sodipodi="http://sodipodi.sourceforge.net/DTD/sodipodi-0.dtd"
   xmlns:inkscape="http://www.inkscape.org/namespaces/inkscape"
   width="400"
   height="400"
   viewBox="0 0 400 400.00001"
   id="svg4863"
   version="1.1"
   inkscape:version="0.91 r13725"
   sodipodi:docname="bowl5.svg">
  <title
     id="title5430">Hadley Demo placeholder</title>
  <defs
     id="defs4865" />
  <sodipodi:namedview
     id="base"
     pagecolor="#ffffff"
     bordercolor="#666666"
     borderopacity="1.0"
     inkscape:pageopacity="0.0"
     inkscape:pageshadow="2"
     inkscape:zoom="0.91142822"
     inkscape:cx="127.89633"
     inkscape:cy="206.54664"
     inkscape:document-units="px"
     inkscape:current-layer="layer1"
     showgrid="false"
     units="px"
     inkscape:window-width="1119"
     inkscape:window-height="776"
     inkscape:window-x="662"
     inkscape:window-y="150"
     inkscape:window-maximized="0" />
  <metadata
     id="metadata4868">
    <rdf:RDF>
      <cc:Work
         rdf:about="">
        <dc:format>image/svg+xml</dc:format>
        <dc:type
           rdf:resource="http://purl.org/dc/dcmitype/StillImage" />
        <dc:title>Hadley Demo placeholder</dc:title>
        <dc:creator>
          <cc:Agent>
            <dc:title>Susan Jensen</dc:title>
          </cc:Agent>
        </dc:creator>
        <dc:date>14 January 2017</dc:date>
      </cc:Work>
    </rdf:RDF>
  </metadata>
  <g
     inkscape:label="Layer 1"
     inkscape:groupmode="layer"
     id="layer1"
     transform="translate(0,-652.36216)">
    <rect
       style="opacity:1;fill:#ffffff;fill-opacity:1;stroke:none;stroke-width:5;stroke-miterlimit:4;stroke-dasharray:none;stroke-dashoffset:0;stroke-opacity:1"
       id="rect6103"
       width="400.65466"
       height="398.69067"
       x="0"
       y="653.67151" />
    <path
       inkscape:connector-curvature="0"
       id="path4466-1-1-9"
       style="font-style:normal;font-variant:normal;font-weight:normal;font-stretch:normal;font-size:80px;line-height:125%;font-family:'DJ Kitchen';-inkscape-font-specification:'DJ Kitchen';letter-spacing:0px;word-spacing:0px;fill:#ffffff;fill-opacity:1;stroke:#0f0707;stroke-width:5;stroke-linecap:butt;stroke-linejoin:miter;stroke-miterlimit:4;stroke-dasharray:none;stroke-opacity:1"
       d="m 186.25141,942.72607 q -5.81255,-0.24837 -14.46378,-0.91008 -8.51602,-0.6619 -12.97684,-1.32379 -9.05671,-1.07559 -14.05822,-3.4749 -2.97383,-1.32374 -3.92009,-2.73022 -0.94622,-1.40649 -1.21657,-2.9785 -0.54068,-1.40647 -0.81106,-1.65471 -3.24421,-0.66189 -7.16428,-3.97129 -2.02764,-1.40648 -5.54217,-2.81301 -9.73264,-3.80582 -19.33011,-10.59013 -9.05678,-6.03966 -15.004461,-13.15489 -5.40702,-6.61884 -7.840157,-11.66569 -2.433174,-5.04687 -5.542189,-16.46432 -2.298007,-8.35628 -3.514569,-12.41032 -1.216575,-3.97129 -0.540709,-4.7159 1.081419,-1.32376 5.136685,-2.56479 1.622079,-0.49643 4.190408,-0.82739 2.568318,-0.41363 10.138165,-1.24101 17.843177,-1.82021 31.495847,-2.48206 13.78792,-0.74464 39.87675,-0.99281 86.37707,-0.9101 130.30909,2.06841 13.112,0.82731 20.68181,1.73741 4.32562,0.57913 7.43466,0.82736 4.19044,0.41366 6.35325,2.31657 1.21654,1.40653 0,9.18365 -1.08141,7.77711 -3.51457,14.80959 -1.48692,3.97132 -3.92009,8.76995 -2.29797,4.71593 -4.05524,7.36344 -2.43317,3.64036 -7.16434,8.27354 -4.59594,4.63317 -8.38085,7.36348 -3.37937,2.23386 -5.407,3.88854 -4.46078,3.47489 -17.03215,9.34909 -6.21803,2.89573 -6.75876,3.97129 -0.67584,1.07556 -4.59595,3.39214 -4.05527,2.48209 -4.46079,3.88857 -1.48693,3.97131 -10.81401,6.12238 -4.73117,0.99282 -15.40997,2.23388 -10.67887,1.15831 -18.24869,1.40652 -5.67741,0.24838 -16.76178,0.24838 -11.08438,0 -17.16727,-0.24838 z m 32.30695,-0.99285 q 7.56982,-0.24836 18.24868,-1.40648 10.67881,-1.15828 15.40995,-2.31658 9.32712,-2.06838 10.81405,-6.03971 0.40553,-1.32374 2.29798,-2.64751 2.43315,-1.48928 1.21657,-0.99281 -2.97382,0.49639 -12.7065,1.57198 -7.97535,0.82732 -12.57128,1.15828 -4.46077,0.33092 -15.81553,0.82735 -20.68183,0.99285 -35.28078,0.82731 -14.46376,-0.24837 -33.11797,-1.73741 -9.32707,-0.66188 -15.40996,-1.73741 -0.81109,-0.083 -0.27036,1.57194 1.08138,3.55762 5.00146,5.29507 4.59595,2.23384 14.05823,3.39215 4.46081,0.66188 12.97683,1.32378 8.65123,0.66187 14.46379,0.82734 6.08288,0.24839 15.54516,0.33092 9.46228,0 15.13964,-0.24837 z m 11.35471,-11.58293 q 8.7864,-0.49642 12.03063,-0.7446 3.24419,-0.24837 12.97682,-1.32377 8.78637,-0.91013 12.97682,-1.98567 3.78491,-0.82735 4.46078,-1.73741 0.13533,-0.7446 6.2181,-3.55765 11.89544,-5.46052 17.30246,-9.4318 1.08136,-0.8274 2.7035,-1.98566 1.62211,-1.15832 2.83864,-2.06838 3.64977,-2.56478 8.24572,-7.19798 4.73113,-4.71593 7.16433,-8.2735 4.32562,-6.78434 7.97532,-16.13344 1.48694,-4.2195 2.29801,-8.02532 0.9462,-3.88857 1.89243,-10.34191 0.27037,-3.06119 -1.89243,-4.30223 -2.29801,-1.40651 -2.29801,0.16538 0,0.33093 -0.67587,0.33093 -0.6759,0 -1.48695,0.33095 -1.21657,0.4964 -5.9477,1.07558 -4.73114,0.49638 -20.54668,1.98565 l -19.19487,1.90287 -34.33459,0.74461 q -20.41144,0.49647 -32.30687,0.66189 -11.89544,0.083 -26.08889,0.083 -21.49284,0 -39.4712,-0.16537 -17.84315,-0.24837 -25.54813,-0.66185 -6.48844,-0.24837 -16.8969,-1.1583 -10.408492,-0.99282 -15.139673,-1.65475 -7.029112,-0.82731 -7.299498,-2.48204 -0.270375,-0.91008 1.081406,-1.57195 1.081419,-0.57916 -0.946201,0.083 -4.59595,1.32374 -4.055266,2.73027 0.270374,0.66191 1.622105,5.54326 1.351767,4.79865 2.973896,10.42463 2.703473,10.25924 5.136648,15.30606 2.433135,4.96413 7.840157,11.41751 5.677369,6.94976 15.274816,13.65131 9.73263,6.61882 19.87081,10.42463 3.10901,1.24102 4.05523,2.15115 1.35179,0.99282 2.70352,1.82016 1.08141,0.66189 2.70351,0.99282 1.6221,0.24837 8.6512,1.07557 6.35325,0.74459 10.5437,1.07555 4.1904,0.33092 13.38234,0.82736 9.73262,0.4964 14.32861,0.66187 4.59593,0.083 16.89693,-0.083 16.8969,0 27.98129,-0.57914 z m 11.48989,-72.06246 34.3346,-0.74463 16.49135,-1.65471 q 6.89398,-0.57913 11.89544,-1.07556 5.00148,-0.57917 5.40702,-0.57917 0.40553,0 0.40553,-0.083 -0.67585,-0.24837 -18.51903,-1.40651 -17.84315,-1.1583 -30.54965,-1.73744 -18.24869,-0.74464 -55.15155,-0.57914 -36.90288,0.083 -67.85802,1.07557 -11.76025,0.41364 -15.13964,0.66188 -3.37942,0.16537 -11.08437,1.15828 -6.75879,0.74459 -9.05679,1.15831 -2.29795,0.33089 -3.649702,0.82735 -2.162826,0.82732 -1.486949,1.07557 0.811071,0.16536 8.110521,0.7446 12.43614,1.07556 27.30541,1.48923 15.00448,0.41369 48.25763,0.41369 16.35622,0 27.30543,-0.083 11.08439,-0.16537 32.98277,-0.6619 z M 93.250753,855.52304 q 0,-0.24837 3.379363,-1.57199 2.433213,-0.82732 4.190444,-1.15828 1.89248,-0.33093 9.46229,-1.24106 7.70501,-0.91006 11.08438,-1.07557 3.51458,-0.24838 15.27482,-0.7446 31.22552,-0.91005 69.34499,-0.9928 38.11945,-0.16538 56.50328,0.57914 18.65423,0.82733 35.01046,2.06838 16.49136,1.1583 17.70798,1.73747 1.89243,0.82732 6.62356,-0.91012 1.21658,-0.49643 0.40554,-0.6619 -0.81106,-0.24837 -7.29946,-0.99279 -16.08589,-1.90294 -44.47271,-2.97847 -28.38684,-1.07556 -62.45104,-1.07556 -19.46524,0 -42.44504,0.33093 -22.84465,0.24805 -31.49585,0.5791 -13.38239,0.49645 -24.60193,1.48931 -11.084405,0.91006 -15.815548,1.90287 -3.244207,0.74461 -7.164268,1.90291 -3.784916,1.07561 -3.784916,1.32375 0,0.57917 10.002996,1.73748 0.270095,0 0.540659,-0.24837 z" />
  </g>
</svg>
