<?xml version="1.0" encoding="UTF-8" standalone="no"?>
<!-- Created with Inkscape (http://www.inkscape.org/) -->

<svg
   xmlns:dc="http://purl.org/dc/elements/1.1/"
   xmlns:cc="http://creativecommons.org/ns#"
   xmlns:rdf="http://www.w3.org/1999/02/22-rdf-syntax-ns#"
   xmlns:svg="http://www.w3.org/2000/svg"
   xmlns="http://www.w3.org/2000/svg"
   xmlns:sodipodi="http://sodipodi.sourceforge.net/DTD/sodipodi-0.dtd"
   xmlns:inkscape="http://www.inkscape.org/namespaces/inkscape"
   width="400"
   height="400"
   viewBox="0 0 400 400.00001"
   id="svg4863"
   version="1.1"
   inkscape:version="0.91 r13725"
   sodipodi:docname="bowl-mini.svg">
  <title
     id="title5430">Hadley Demo placeholder</title>
  <defs
     id="defs4865" />
  <sodipodi:namedview
     id="base"
     pagecolor="#ffffff"
     bordercolor="#666666"
     borderopacity="1.0"
     inkscape:pageopacity="0.0"
     inkscape:pageshadow="2"
     inkscape:zoom="1.0918799"
     inkscape:cx="200"
     inkscape:cy="200"
     inkscape:document-units="px"
     inkscape:current-layer="layer1"
     showgrid="false"
     units="px"
     inkscape:window-width="875"
     inkscape:window-height="734"
     inkscape:window-x="1043"
     inkscape:window-y="256"
     inkscape:window-maximized="0" />
  <metadata
     id="metadata4868">
    <rdf:RDF>
      <cc:Work
         rdf:about="">
        <dc:format>image/svg+xml</dc:format>
        <dc:type
           rdf:resource="http://purl.org/dc/dcmitype/StillImage" />
        <dc:title>Hadley Demo placeholder</dc:title>
        <dc:creator>
          <cc:Agent>
            <dc:title>Susan Jensen</dc:title>
          </cc:Agent>
        </dc:creator>
        <dc:date>14 January 2017</dc:date>
      </cc:Work>
    </rdf:RDF>
  </metadata>
  <g
     inkscape:label="Layer 1"
     inkscape:groupmode="layer"
     id="layer1"
     transform="translate(0,-652.36216)">
    <rect
       style="opacity:1;fill:#ffffff;fill-opacity:1;stroke:none;stroke-width:5;stroke-miterlimit:4;stroke-dasharray:none;stroke-dashoffset:0;stroke-opacity:1"
       id="rect6103"
       width="400.65466"
       height="398.69067"
       x="2.2172"
       y="653.52576" />
    <path
       inkscape:connector-curvature="0"
       id="path4472-8"
       style="font-style:normal;font-variant:normal;font-weight:normal;font-stretch:normal;font-size:80px;line-height:125%;font-family:'DJ Kitchen';-inkscape-font-specification:'DJ Kitchen';letter-spacing:0px;word-spacing:0px;fill:#ffffff;fill-opacity:1;stroke:#0f0707;stroke-width:5;stroke-linecap:butt;stroke-linejoin:miter;stroke-miterlimit:4;stroke-dasharray:none;stroke-opacity:1"
       d="m 185.30705,974.57035 q -14.73543,-0.2028 -23.42559,-1.21558 -8.69012,-1.01298 -16.62462,-3.03901 -9.25688,-3.03901 -13.60196,-6.68578 -3.21156,-2.22862 -3.21156,-3.84942 0,-1.82338 -3.58942,-4.25458 -8.69011,-6.07803 -12.84628,-9.92739 -4.15613,-3.84941 -8.12341,-9.7248 -5.100699,-7.2936 -7.934449,-12.156 -2.83375,-4.8624 -7.55665,-16.41063 -2.45589,-5.47016 -5.47855,-11.95336 -3.02266,-6.68584 -4.91184,-10.33262 -8.87907,-18.84178 -14.35763,-39.507 -1.700229,-5.06499 -3.778318,-11.54819 -1.889137,-6.4832 -3.211562,-10.73779 l -2.833753,-9.72479 0,-3.03902 q 0,-4.25458 2.266993,-8.50922 1.700233,-4.052 13.22415,-10.5352 3.77832,-2.22856 15.30219,-5.6728 11.52387,-3.64677 20.780749,-5.47016 10.76825,-1.82344 20.21402,-2.83643 9.44583,-1.21557 24.74803,-2.22861 13.97976,-0.60776 20.21403,-0.60776 6.42312,-0.20279 20.78075,0 23.23669,0.40507 38.34998,1.6208 15.11329,1.01299 37.21646,4.45717 12.09063,1.82339 25.12583,5.47022 13.22415,3.44418 20.02513,6.88837 10.7682,5.6728 13.60196,11.54824 1.51133,3.44418 1.13347,7.09096 -0.75567,4.65981 -2.83371,8.104 -1.13352,0.8104 -6.23426,23.90682 -3.58937,14.38461 -4.34504,16.61317 -4.34508,13.37163 -18.3249,42.74861 -6.98988,15.3976 -11.14601,22.89378 -4.15618,7.2936 -8.87907,13.37163 -7.9345,9.52221 -20.02513,17.0184 l -3.96722,2.4312 -0.1891,1.41821 q -0.75567,1.6208 -0.75567,2.4312 -1.32242,2.22856 -8.69016,4.8624 -4.53399,2.02597 -10.76821,3.03896 -14.73543,3.03901 -27.39282,3.64682 -6.42317,0.40507 -17.94704,0.40507 z m 24.74802,-6.68579 q 7.93446,-0.40507 17.38028,-1.82338 9.63474,-1.6208 16.24677,-3.03902 l 4.91184,-1.21557 0.37771,-2.02603 q 0.56676,-1.6208 1.51133,-2.63378 0.1891,-0.2028 0.37771,-0.40507 0.1891,-0.40507 0.1891,-0.40507 0,-0.40507 -7.17879,1.6208 -15.86895,4.052 -35.51623,5.67279 -7.9345,0.60782 -12.46848,0.8104 -4.34509,0 -12.09063,-0.40507 -32.68248,-2.02597 -48.92929,-6.88837 -6.42312,-1.82339 -6.04531,-1.82339 0,0 0,0.2028 0,0.20279 0.37771,0.8104 0.37771,0.60781 0.94457,2.4312 0,0.60781 0,1.01299 0,0.40507 0,0.40507 0.1891,0.60776 5.66751,2.02597 5.66745,1.41821 11.71277,2.22861 9.63473,2.02598 17.94704,2.83638 15.68005,1.41821 24.74802,1.6208 9.25688,0 19.83618,-1.01299 z m 14.16872,-129.66398 q 11.52387,-0.40507 21.15861,-1.6208 9.63468,-1.41822 24.55907,-4.25459 16.05785,-2.63379 20.40293,-4.052 4.91185,-1.41821 10.3904,-3.44419 5.47856,-2.22861 8.12341,-3.44423 3.96722,-2.22856 8.3123,-6.28056 2.83371,-3.2416 2.83371,-6.88843 0,-2.02597 -0.75566,-3.64677 -1.88914,-3.64683 -16.62462,-11.14301 -3.02266,-1.01299 -8.12336,-2.83643 -5.10074,-2.02597 -9.06797,-3.2416 -4.72294,-1.21557 -17.75814,-3.2416 -13.0352,-2.22856 -23.04774,-3.44419 -6.23427,-0.8104 -16.81357,-1.6208 -10.5793,-1.01298 -15.86895,-1.41821 -7.17879,-0.20279 -29.84872,-0.20279 -22.48103,0 -25.88149,0.20279 -3.02266,0 -10.2015,0.8104 -8.1234,0.40507 -12.46843,0.8104 -4.34509,0.40507 -11.52392,1.01304 -8.3123,1.6208 -14.73543,2.83637 -6.42317,1.01299 -9.823629,1.82339 -17.94704,5.06504 -27.39282,10.13003 -7.36774,3.84941 -10.012594,8.10399 -1.133473,1.41822 -0.755665,3.44419 0,3.03901 2.833754,6.4832 2.833755,3.84941 8.312305,7.09101 7.74555,4.052 24.37017,8.104 28.337429,7.49619 72.921629,9.92739 6.23422,0.40507 27.39282,0.40507 21.1586,0 29.0931,-0.40507 z" />
  </g>
</svg>
