<?xml version="1.0" encoding="UTF-8" standalone="no"?>
<!-- Created with Inkscape (http://www.inkscape.org/) -->

<svg
   xmlns:dc="http://purl.org/dc/elements/1.1/"
   xmlns:cc="http://creativecommons.org/ns#"
   xmlns:rdf="http://www.w3.org/1999/02/22-rdf-syntax-ns#"
   xmlns:svg="http://www.w3.org/2000/svg"
   xmlns="http://www.w3.org/2000/svg"
   xmlns:sodipodi="http://sodipodi.sourceforge.net/DTD/sodipodi-0.dtd"
   xmlns:inkscape="http://www.inkscape.org/namespaces/inkscape"
   width="400"
   height="400"
   viewBox="0 0 400 400.00001"
   id="svg4863"
   version="1.1"
   inkscape:version="0.91 r13725"
   sodipodi:docname="bowl7.svg">
  <title
     id="title5430">Hadley Demo placeholder</title>
  <defs
     id="defs4865" />
  <sodipodi:namedview
     id="base"
     pagecolor="#ffffff"
     bordercolor="#666666"
     borderopacity="1.0"
     inkscape:pageopacity="0.0"
     inkscape:pageshadow="2"
     inkscape:zoom="2.5779083"
     inkscape:cx="193.45336"
     inkscape:cy="206.54664"
     inkscape:document-units="px"
     inkscape:current-layer="layer1"
     showgrid="false"
     units="px"
     inkscape:window-width="1119"
     inkscape:window-height="776"
     inkscape:window-x="662"
     inkscape:window-y="150"
     inkscape:window-maximized="0" />
  <metadata
     id="metadata4868">
    <rdf:RDF>
      <cc:Work
         rdf:about="">
        <dc:format>image/svg+xml</dc:format>
        <dc:type
           rdf:resource="http://purl.org/dc/dcmitype/StillImage" />
        <dc:title>Hadley Demo placeholder</dc:title>
        <dc:creator>
          <cc:Agent>
            <dc:title>Susan Jensen</dc:title>
          </cc:Agent>
        </dc:creator>
        <dc:date>14 January 2017</dc:date>
      </cc:Work>
    </rdf:RDF>
  </metadata>
  <g
     inkscape:label="Layer 1"
     inkscape:groupmode="layer"
     id="layer1"
     transform="translate(0,-652.36216)">
    <rect
       style="opacity:1;fill:#ffffff;fill-opacity:1;stroke:none;stroke-width:5;stroke-miterlimit:4;stroke-dasharray:none;stroke-dashoffset:0;stroke-opacity:1"
       id="rect6103"
       width="400.65466"
       height="398.69067"
       x="0.65466446"
       y="653.01685" />
    <path
       inkscape:connector-curvature="0"
       id="path4466-1-1-9"
       style="font-style:normal;font-variant:normal;font-weight:normal;font-stretch:normal;font-size:80px;line-height:125%;font-family:'DJ Kitchen';-inkscape-font-specification:'DJ Kitchen';letter-spacing:0px;word-spacing:0px;fill:#ffffff;fill-opacity:1;stroke:#0f0707;stroke-width:5;stroke-linecap:butt;stroke-linejoin:miter;stroke-miterlimit:4;stroke-dasharray:none;stroke-opacity:1"
       d="m 186.69105,956.30748 q -6.8274,-0.26341 -16.98911,-0.96519 -10.00288,-0.70196 -15.24255,-1.40393 -10.63797,-1.14071 -16.51273,-3.68529 -3.49306,-1.40389 -4.60452,-2.89551 -1.11144,-1.49165 -1.42899,-3.15884 -0.63507,-1.49162 -0.95267,-1.75488 -3.81063,-0.70197 -8.41513,-4.21174 -2.38167,-1.49164 -6.50981,-2.98332 -11.43194,-4.03624 -22.705095,-11.2313 -10.638064,-6.40533 -17.62419,-13.95135 -6.351067,-7.01957 -9.209022,-12.37198 -2.857998,-5.35244 -6.509836,-17.46115 -2.699232,-8.8622 -4.128202,-13.16168 -1.428985,-4.21173 -0.635115,-5.00143 1.270232,-1.4039 6.033534,-2.72007 1.905288,-0.52649 4.922039,-0.87749 3.016737,-0.43866 11.908254,-1.31614 20.958537,-1.93041 36.994923,-2.63233 16.19525,-0.78973 46.8391,-1.05292 101.45821,-0.96521 153.06062,2.19364 15.40131,0.87739 24.29278,1.84259 5.08086,0.61419 8.73273,0.87746 4.92207,0.4387 7.46251,2.45682 1.42894,1.49169 0,9.73968 -1.27023,8.24796 -4.1282,15.70622 -1.74654,4.21177 -4.60453,9.30092 -2.69919,5.00145 -4.76328,7.80926 -2.85799,3.86076 -8.4152,8.77444 -5.39838,4.91368 -9.84412,7.8093 -3.9694,2.36911 -6.35105,4.12397 -5.2396,3.68528 -20.0059,9.91513 -7.30368,3.07105 -7.93882,4.21173 -0.79385,1.14067 -5.39838,3.59751 -4.76331,2.63237 -5.23964,4.12401 -1.74653,4.21175 -12.70209,6.49305 -5.55722,1.05293 -18.1005,2.36912 -12.54336,1.22845 -21.43486,1.49169 -6.66866,0.26341 -19.68832,0.26341 -13.01968,0 -20.16463,-0.26341 z m 37.94765,-1.05297 q 8.89148,-0.26339 21.43483,-1.49163 12.54329,-1.22841 18.10048,-2.45684 10.9556,-2.1936 12.70215,-6.40537 0.47633,-1.40389 2.6992,-2.80781 2.85796,-1.57945 1.42898,-1.05292 -3.49305,0.52644 -14.92502,1.66716 -9.36782,0.8774 -14.76618,1.2284 -5.23961,0.35095 -18.57687,0.87744 -24.29281,1.05297 -41.44069,0.8774 -16.98908,-0.2634 -38.90026,-1.84259 -10.95554,-0.70196 -18.10049,-1.8426 -0.95269,-0.0881 -0.31755,1.6671 1.27018,3.77301 5.8747,5.61566 5.39838,2.36909 16.51274,3.59753 5.23966,0.70195 15.24254,1.40393 10.16171,0.70194 16.98911,0.87743 7.14494,0.26342 18.25931,0.35095 11.11436,0 17.78297,-0.26341 z m 13.3372,-12.28421 q 10.32047,-0.52646 14.13113,-0.78968 3.81061,-0.2634 15.24253,-1.40392 10.32044,-0.96523 15.24253,-2.10589 4.44574,-0.87744 5.23963,-1.84259 0.15896,-0.78969 7.30374,-3.77304 13.97235,-5.79114 20.32342,-10.00285 1.27016,-0.8775 3.17552,-2.10588 1.90533,-1.22845 3.33425,-2.1936 4.28702,-2.72008 9.68541,-7.6338 5.55717,-5.00144 8.4152,-8.7744 5.08085,-7.1951 9.36778,-17.11023 1.74656,-4.47497 2.69923,-8.51122 1.1114,-4.12399 2.22284,-10.96804 0.31758,-3.24653 -2.22284,-4.5627 -2.69923,-1.49168 -2.69923,0.17538 0,0.35097 -0.79388,0.35097 -0.79391,0 -1.74656,0.35099 -1.42898,0.52646 -6.98615,1.1407 -5.55718,0.52642 -24.13406,2.10587 l -22.54623,2.01808 -40.3293,0.78969 q -23.9752,0.52652 -37.94754,0.70196 -13.97235,0.088 -30.64393,0.088 -25.24541,0 -46.36273,-0.17537 -20.95851,-0.2634 -30.00875,-0.70192 -7.6213,-0.26341 -19.847047,-1.22843 -12.22578,-1.05293 -17.783009,-1.75493 -8.256372,-0.8774 -8.573965,-2.63232 -0.317583,-0.96517 1.270215,-1.66712 1.270231,-0.61422 -1.111405,0.0881 -5.398387,1.40388 -4.763302,2.89557 0.317581,0.70199 1.905319,5.87887 1.587781,5.08919 3.493129,11.05579 3.17549,10.88037 6.033489,16.23275 2.857953,5.26468 9.209022,12.10877 6.668619,7.37054 17.941748,14.47783 11.431916,7.01955 23.340186,11.05577 3.65184,1.31616 4.76326,2.28141 1.5878,1.05293 3.17555,1.93035 1.27022,0.70196 3.17553,1.05293 1.90531,0.26341 10.16168,1.14069 7.4625,0.78967 12.38459,1.14066 4.92204,0.35095 15.71886,0.87745 11.43189,0.52645 16.83033,0.70195 5.39836,0.0881 19.84707,-0.088 19.84705,0 32.86674,-0.61421 z m 13.49598,-76.42543 40.32931,-0.78971 19.37069,-1.75489 q 8.09764,-0.6142 13.97234,-1.14068 5.87472,-0.61423 6.35107,-0.61423 0.47632,0 0.47632,-0.088 -0.79385,-0.2634 -21.75239,-1.49166 -20.95849,-1.22843 -35.88351,-1.84263 -21.43485,-0.78972 -64.78082,-0.6142 -43.346,0.088 -79.70581,1.14069 -13.81354,0.43869 -17.78297,0.70195 -3.96946,0.17538 -13.019666,1.22841 -7.938852,0.78966 -10.638076,1.22844 -2.699165,0.35092 -4.286928,0.87743 -2.540448,0.87741 -1.746564,1.14069 0.95268,0.17538 9.52659,0.78969 14.607454,1.14068 32.072844,1.57939 17.62422,0.43874 56.68326,0.43874 19.21196,0 32.07286,-0.0881 13.01969,-0.17537 38.74145,-0.70197 z M 77.452791,863.8248 q 0,-0.26341 3.969388,-1.66717 2.858045,-0.87741 4.922081,-1.22841 2.222902,-0.35097 11.114375,-1.3162 9.050285,-0.96516 13.019675,-1.14069 4.12822,-0.26341 17.94175,-0.78967 36.6774,-0.96516 81.45241,-1.05291 44.77497,-0.1754 66.36855,0.6142 21.9112,0.87741 41.12317,2.19361 19.37069,1.22843 20.79975,1.84266 2.22283,0.87741 7.78,-0.96522 1.42899,-0.52648 0.47634,-0.70198 -0.95266,-0.2634 -8.57392,-1.05289 -18.89444,-2.01816 -52.23749,-3.15881 -33.34309,-1.14067 -73.35478,-1.14067 -22.86381,0 -49.85581,0.35097 -26.83324,0.26306 -36.99493,0.61416 -15.7189,0.52651 -28.897336,1.57947 -13.019704,0.96516 -18.57689,2.01808 -3.810634,0.78969 -8.415125,2.01812 -4.44575,1.14074 -4.44575,1.40391 0,0.61423 11.749486,1.84267 0.317252,0 0.635056,-0.26341 z" />
  </g>
</svg>
