<?xml version="1.0" encoding="UTF-8" standalone="no"?>
<!-- Created with Inkscape (http://www.inkscape.org/) -->

<svg
   xmlns:dc="http://purl.org/dc/elements/1.1/"
   xmlns:cc="http://creativecommons.org/ns#"
   xmlns:rdf="http://www.w3.org/1999/02/22-rdf-syntax-ns#"
   xmlns:svg="http://www.w3.org/2000/svg"
   xmlns="http://www.w3.org/2000/svg"
   xmlns:sodipodi="http://sodipodi.sourceforge.net/DTD/sodipodi-0.dtd"
   xmlns:inkscape="http://www.inkscape.org/namespaces/inkscape"
   width="400"
   height="400"
   viewBox="0 0 400 400.00001"
   id="svg4863"
   version="1.1"
   inkscape:version="0.91 r13725"
   sodipodi:docname="bowl-everything.svg">
  <title
     id="title5430">Hadley Demo placeholder</title>
  <defs
     id="defs4865" />
  <sodipodi:namedview
     id="base"
     pagecolor="#ffffff"
     bordercolor="#666666"
     borderopacity="1.0"
     inkscape:pageopacity="0.0"
     inkscape:pageshadow="2"
     inkscape:zoom="1.8228564"
     inkscape:cx="193.45336"
     inkscape:cy="206.54664"
     inkscape:document-units="px"
     inkscape:current-layer="layer1"
     showgrid="false"
     units="px"
     inkscape:window-width="1119"
     inkscape:window-height="776"
     inkscape:window-x="344"
     inkscape:window-y="279"
     inkscape:window-maximized="0" />
  <metadata
     id="metadata4868">
    <rdf:RDF>
      <cc:Work
         rdf:about="">
        <dc:format>image/svg+xml</dc:format>
        <dc:type
           rdf:resource="http://purl.org/dc/dcmitype/StillImage" />
        <dc:title>Hadley Demo placeholder</dc:title>
        <dc:creator>
          <cc:Agent>
            <dc:title>Susan Jensen</dc:title>
          </cc:Agent>
        </dc:creator>
        <dc:date>14 January 2017</dc:date>
      </cc:Work>
    </rdf:RDF>
  </metadata>
  <g
     inkscape:label="Layer 1"
     inkscape:groupmode="layer"
     id="layer1"
     transform="translate(0,-652.36216)">
    <rect
       style="opacity:1;fill:#ffffff;fill-opacity:1;stroke:none;stroke-width:5;stroke-miterlimit:4;stroke-dasharray:none;stroke-dashoffset:0;stroke-opacity:1"
       id="rect6103"
       width="400.65466"
       height="398.69067"
       x="0.65466446"
       y="653.01685" />
    <path
       inkscape:connector-curvature="0"
       id="path4466-19"
       style="font-style:normal;font-variant:normal;font-weight:normal;font-stretch:normal;font-size:80px;line-height:125%;font-family:'DJ Kitchen';-inkscape-font-specification:'DJ Kitchen';letter-spacing:0px;word-spacing:0px;fill:#ffffff;fill-opacity:1;stroke:#0f0707;stroke-width:5;stroke-linecap:butt;stroke-linejoin:miter;stroke-miterlimit:4;stroke-dasharray:none;stroke-opacity:1"
       d="m 178.20157,948.50635 q -5.88968,-0.46218 -14.6557,-1.69473 -8.62902,-1.23255 -13.14903,-2.4651 -9.1769,-2.00292 -14.24478,-6.47091 -3.0133,-2.4651 -3.97209,-5.08425 -0.9588,-2.61916 -1.23272,-5.54648 -0.54787,-2.61916 -0.82183,-3.08137 -3.28726,-1.23255 -7.25935,-7.3953 -2.05454,-2.61916 -5.61572,-5.23836 -9.86177,-7.08714 -19.586586,-19.7208 -9.176936,-11.247 -15.203574,-24.4969 -5.478762,-12.32549 -7.944188,-21.72372 -2.46546,-9.39818 -5.615722,-30.65965 -2.328501,-15.56097 -3.561213,-23.11033 -1.232713,-7.39529 -0.547877,-8.7819 1.095753,-2.4651 5.204842,-4.77614 1.643629,-0.9244 4.246014,-1.54067 2.602421,-0.77037 10.272688,-2.31104 18.079916,-3.38953 31.913786,-4.62208 13.97086,-1.38661 40.40588,-1.84883 87.52323,-1.69473 132.03816,3.85175 13.28599,1.54067 20.95626,3.23543 4.38301,1.07849 7.53331,1.54067 4.24605,0.77037 6.43755,4.31392 1.23271,2.6192 0,17.10164 -1.09575,14.48248 -3.56121,27.57832 -1.50663,7.3953 -3.97209,16.33126 -2.32847,8.78195 -4.10906,13.71215 -2.46546,6.77902 -7.25938,15.40687 -4.65694,8.62785 -8.49207,13.71211 -3.42422,4.15987 -5.47876,7.24124 -4.51997,6.47087 -17.25812,17.40976 -6.30056,5.39241 -6.84843,7.3953 -0.68484,2.00288 -4.65697,6.31681 -4.10905,4.62208 -4.51997,7.24124 -1.50667,7.3953 -10.95752,11.40106 -4.79393,1.84883 -15.61446,4.15987 -10.82056,2.15698 -18.49083,2.61916 -5.75272,0.46221 -16.98416,0.46221 -11.23148,0 -17.39508,-0.46221 z m 32.73561,-1.84883 q 7.67027,-0.46217 18.49083,-2.61916 10.82053,-2.15694 15.61446,-4.31392 9.45085,-3.85171 10.95752,-11.24701 0.41092,-2.4651 2.32847,-4.9302 2.46546,-2.77326 1.23274,-1.84882 -3.01333,0.92439 -12.8751,2.92731 -8.08119,1.54067 -12.73812,2.15695 -4.51997,0.61627 -16.02537,1.5407 -20.95629,1.84883 -35.74895,1.54067 -14.65566,-0.46222 -33.55741,-3.23543 -9.45085,-1.23255 -15.61445,-3.23544 -0.82183,-0.15421 -0.27385,2.92728 1.09575,6.62496 5.06784,9.8604 4.65697,4.15986 14.24478,6.31685 4.52001,1.23255 13.14903,2.4651 8.76602,1.23255 14.6557,1.54066 6.1636,0.46222 15.75145,0.61628 9.58782,0 15.34054,-0.46222 z m 11.5054,-21.56962 q 8.90298,-0.92439 12.19024,-1.38661 3.28726,-0.46222 13.14903,-2.4651 8.90298,-1.69477 13.14903,-3.69765 3.83513,-1.54067 4.51997,-3.23543 0.1371,-1.38661 6.30059,-6.62497 12.05328,-10.16851 17.53204,-17.56381 1.09575,-1.54071 2.73938,-3.69765 1.64363,-2.15699 2.87634,-3.85175 3.69818,-4.7761 8.35511,-13.40395 4.79392,-8.78195 7.25938,-15.40687 4.38301,-12.63366 8.08115,-30.04342 1.50667,-7.85751 2.3285,-14.94465 0.95876,-7.24125 1.91755,-19.25863 0.27385,-5.70053 -1.91755,-8.01157 -2.3285,-2.61916 -2.3285,0.30804 0,0.61627 -0.68484,0.61627 -0.68483,0 -1.50666,0.61628 -1.23272,0.92439 -6.02664,2.00288 -4.79389,0.92443 -20.8193,3.69765 l -19.44959,3.54359 -34.79015,1.38661 q -20.68231,0.92443 -32.73558,1.23255 -12.05328,0.15422 -26.43506,0.15422 -21.77805,0 -39.99496,-0.30804 -18.07992,-0.46222 -25.88714,-1.23255 -6.57452,-0.46222 -17.121126,-2.15698 -10.546609,-1.84883 -15.340535,-3.08138 -7.12239,-1.54067 -7.396346,-4.62204 -0.273851,-1.69477 1.095752,-2.92732 1.095753,-1.07849 -0.958757,0.15422 -4.656965,2.4651 -4.109089,5.0843 0.27385,1.23255 1.643629,10.32257 1.369708,8.93601 3.013336,19.41268 2.739382,19.10453 5.204807,28.50271 2.465461,9.24412 7.944223,21.26151 5.752683,12.94177 15.477494,25.42133 9.861772,12.32549 20.134462,19.41264 3.15026,2.31104 4.10905,4.0058 1.36971,1.84883 2.73938,3.3895 1.09576,1.23255 2.73938,1.84882 1.64363,0.46222 8.76602,2.00292 6.43756,1.38661 10.68361,2.00289 4.24601,0.61627 13.55991,1.54067 9.86177,0.92443 14.51874,1.23255 4.65693,0.15421 17.12112,-0.15422 17.12112,0 28.3526,-1.07849 z m 11.64236,-134.19384 34.79016,-1.38665 16.71021,-3.08137 q 6.98543,-1.07845 12.05327,-2.00288 5.06785,-1.0785 5.47877,-1.0785 0.41091,0 0.41091,-0.15421 -0.68483,-0.46222 -18.76475,-2.61916 -18.07991,-2.15698 -30.95502,-3.23543 -18.49083,-1.38665 -55.88338,-1.0785 -37.39254,0.15422 -68.75845,2.00289 -11.91631,0.77033 -15.34053,1.23255 -3.42425,0.30804 -11.23148,2.15698 -6.848436,1.38661 -9.176936,2.15694 -2.328465,0.61628 -3.698138,1.54071 -2.191505,1.54067 -1.506668,2.00288 0.821796,0.30804 8.218143,1.38661 12.601149,2.00289 27.667729,2.77326 15.20358,0.77033 48.89798,0.77033 16.57325,0 27.66773,-0.15421 11.23148,-0.30804 33.42045,-1.23255 z M 83.966858,786.11792 q 0,-0.46221 3.424218,-2.92731 2.46546,-1.54067 4.246049,-2.15695 1.917584,-0.61627 9.587855,-2.31104 7.80722,-1.69476 11.23144,-2.00288 3.56121,-0.46222 15.4775,-1.38665 31.63986,-1.69473 70.26515,-1.84882 38.62525,-0.30804 57.25304,1.07849 18.90175,1.5407 35.475,3.85171 16.71021,2.15698 17.94295,3.23547 1.91755,1.54067 6.71148,-1.69477 1.23271,-0.92443 0.41091,-1.23255 -0.82183,-0.46221 -7.39634,-1.84882 -16.29933,-3.54359 -45.06281,-5.54648 -28.76352,-2.00288 -63.27972,-2.00288 -19.72355,0 -43.00827,0.61627 -23.14776,0.46218 -31.91378,1.07846 -13.55994,0.92443 -24.92839,2.77325 -11.23144,1.69477 -16.025366,3.54359 -3.287257,1.38661 -7.259351,3.54355 -3.835134,2.00293 -3.835134,2.4651 0,1.0785 10.135693,3.23548 0.27385,0 0.547876,-0.46222 z" />
  </g>
</svg>
