<?xml version="1.0" encoding="UTF-8" standalone="no"?>
<!-- Created with Inkscape (http://www.inkscape.org/) -->

<svg
   xmlns:dc="http://purl.org/dc/elements/1.1/"
   xmlns:cc="http://creativecommons.org/ns#"
   xmlns:rdf="http://www.w3.org/1999/02/22-rdf-syntax-ns#"
   xmlns:svg="http://www.w3.org/2000/svg"
   xmlns="http://www.w3.org/2000/svg"
   xmlns:sodipodi="http://sodipodi.sourceforge.net/DTD/sodipodi-0.dtd"
   xmlns:inkscape="http://www.inkscape.org/namespaces/inkscape"
   width="400"
   height="400"
   viewBox="0 0 400 400.00001"
   id="svg4863"
   version="1.1"
   inkscape:version="0.91 r13725"
   sodipodi:docname="bowl7-deep.svg">
  <title
     id="title5430">Hadley Demo placeholder</title>
  <defs
     id="defs4865" />
  <sodipodi:namedview
     id="base"
     pagecolor="#ffffff"
     bordercolor="#666666"
     borderopacity="1.0"
     inkscape:pageopacity="0.0"
     inkscape:pageshadow="2"
     inkscape:zoom="2.5779083"
     inkscape:cx="193.45336"
     inkscape:cy="206.54664"
     inkscape:document-units="px"
     inkscape:current-layer="layer1"
     showgrid="false"
     units="px"
     inkscape:window-width="1119"
     inkscape:window-height="776"
     inkscape:window-x="662"
     inkscape:window-y="150"
     inkscape:window-maximized="0" />
  <metadata
     id="metadata4868">
    <rdf:RDF>
      <cc:Work
         rdf:about="">
        <dc:format>image/svg+xml</dc:format>
        <dc:type
           rdf:resource="http://purl.org/dc/dcmitype/StillImage" />
        <dc:title>Hadley Demo placeholder</dc:title>
        <dc:creator>
          <cc:Agent>
            <dc:title>Susan Jensen</dc:title>
          </cc:Agent>
        </dc:creator>
        <dc:date>14 January 2017</dc:date>
      </cc:Work>
    </rdf:RDF>
  </metadata>
  <g
     inkscape:label="Layer 1"
     inkscape:groupmode="layer"
     id="layer1"
     transform="translate(0,-652.36216)">
    <rect
       style="opacity:1;fill:#ffffff;fill-opacity:1;stroke:none;stroke-width:5;stroke-miterlimit:4;stroke-dasharray:none;stroke-dashoffset:0;stroke-opacity:1"
       id="rect6103"
       width="400.65466"
       height="398.69067"
       x="0.65466446"
       y="653.01685" />
    <path
       inkscape:connector-curvature="0"
       id="path4466-1-1-9"
       style="font-style:normal;font-variant:normal;font-weight:normal;font-stretch:normal;font-size:80px;line-height:125%;font-family:'DJ Kitchen';-inkscape-font-specification:'DJ Kitchen';letter-spacing:0px;word-spacing:0px;fill:#ffffff;fill-opacity:1;stroke:#0f0707;stroke-width:5.87740135;stroke-linecap:butt;stroke-linejoin:miter;stroke-miterlimit:4;stroke-dasharray:none;stroke-opacity:1"
       d="m 186.74621,965.95377 q -6.80742,-0.36504 -16.93939,-1.33757 -9.97361,-0.97278 -15.19794,-1.94558 -10.60684,-1.5808 -16.46441,-5.10712 -3.48284,-1.94551 -4.59104,-4.01262 -1.10818,-2.06714 -1.4248,-4.37755 -0.63321,-2.06709 -0.94989,-2.43193 -3.79948,-0.97279 -8.3905,-5.83666 -2.3747,-2.06713 -6.49076,-4.13432 -11.39848,-5.59346 -22.638643,-15.56444 -10.60693,-8.87657 -17.572609,-19.33391 -6.332481,-9.72779 -9.182071,-17.14522 -2.849634,-7.41746 -6.490785,-24.19782 -2.691331,-12.28132 -4.116119,-18.23958 -1.424803,-5.83666 -0.633257,-6.93103 1.266515,-1.94554 6.015877,-3.7695 1.899711,-0.72961 4.907633,-1.21603 3.007909,-0.60791 11.873403,-1.82392 20.897199,-2.67519 36.886651,-3.64791 16.14786,-1.09442 46.70202,-1.45915 101.16128,-1.3376 152.61266,3.03997 15.35623,1.2159 24.22169,2.55348 5.06598,0.85115 8.70717,1.21599 4.90766,0.60796 7.44067,3.40469 1.42475,2.06719 0,13.49734 -1.26651,11.43009 -4.11612,21.76582 -1.74143,5.83672 -4.59105,12.88931 -2.6913,6.93105 -4.74935,10.82215 -2.84962,5.35027 -8.39057,12.1597 -5.38257,6.80943 -9.81531,10.8222 -3.95778,3.28314 -6.33246,5.71504 -5.22427,5.1071 -19.94735,13.74047 -7.2823,4.2559 -7.91558,5.83667 -0.79153,1.58074 -5.38259,4.98546 -4.74937,3.64796 -5.2243,5.71509 -1.74141,5.83668 -12.66491,8.99813 -5.54096,1.45916 -18.04753,3.28316 -12.50665,1.70239 -21.37213,2.06719 -6.64914,0.36503 -19.6307,0.36503 -12.98157,0 -20.10561,-0.36503 z m 37.83659,-1.45921 q 8.86546,-0.36501 21.37209,-2.06712 12.50658,-1.70234 18.04751,-3.40471 10.92354,-3.03992 12.66498,-8.87663 0.47494,-1.94552 2.69129,-3.89109 2.8496,-2.18882 1.42481,-1.45915 -3.48283,0.72955 -14.88134,2.31038 -9.34041,1.2159 -14.72297,1.70232 -5.22428,0.48635 -18.52251,1.21597 -24.2217,1.45921 -41.3194,1.2159 -16.93936,-0.36502 -38.78641,-2.55347 -10.92348,-0.97279 -18.04752,-2.5535 -0.9499,-0.12209 -0.31662,2.31029 1.26647,5.22867 5.85751,7.78223 5.38258,3.28311 16.46441,4.9855 5.22433,0.97276 15.19794,1.94557 10.13196,0.97276 16.93938,1.21596 7.12403,0.36505 18.20587,0.48634 11.08183,0 17.73093,-0.36503 z m 13.29817,-17.02358 q 10.29026,-0.72958 14.08977,-1.09435 3.79946,-0.36502 15.19792,-1.94557 10.29024,-1.33762 15.19792,-2.91835 4.43272,-1.21597 5.2243,-2.55349 0.15849,-1.09435 7.28236,-5.22871 13.93145,-8.02542 20.26394,-13.86204 1.26644,-1.21605 3.16622,-2.91835 1.89975,-1.7024 3.3245,-3.03992 4.27447,-3.76951 9.65706,-10.57899 5.5409,-6.93104 8.39057,-12.15965 5.06598,-9.97103 9.34036,-23.71152 1.74145,-6.20145 2.69133,-11.79492 1.10815,-5.71507 2.21634,-15.19962 0.31665,-4.49907 -2.21634,-6.32303 -2.69133,-2.06719 -2.69133,0.24304 0,0.48638 -0.79155,0.48638 -0.79159,0 -1.74145,0.48641 -1.4248,0.72957 -6.9657,1.58078 -5.54092,0.72953 -24.06343,2.91835 l -22.48025,2.79667 -40.21127,1.09436 q -23.90503,0.72966 -37.83648,0.97278 -13.93145,0.12195 -30.55424,0.12195 -25.17153,0 -46.22705,-0.24303 -20.89716,-0.36502 -29.92092,-0.97273 -7.59899,-0.36503 -19.78896,-1.70237 -12.19,-1.45916 -17.730964,-2.432 -8.232209,-1.2159 -8.548873,-3.64789 -0.316653,-1.33754 1.266498,-2.31031 1.266513,-0.85119 -1.108152,0.12209 -5.382588,1.94551 -4.749361,4.01271 0.31665,0.97283 1.899742,8.14699 1.583134,7.05265 3.482906,15.32122 3.166196,15.07812 6.015831,22.4955 2.849589,7.29584 9.18207,16.78045 6.649103,10.21416 17.889239,20.06351 11.398464,9.72777 23.271874,15.3212 3.64115,1.82394 4.74932,3.1616 1.58316,1.45916 3.16626,2.6751 1.2665,0.97278 3.16623,1.45916 1.89974,0.36503 10.13195,1.58077 7.44065,1.09434 12.34834,1.58074 4.90764,0.48635 15.67286,1.21598 11.39843,0.72956 16.78107,0.97277 5.38256,0.12209 19.78899,-0.12196 19.78896,0 32.77055,-0.85118 z m 13.45648,-105.91109 40.21128,-1.09439 19.31399,-2.43194 q 8.07394,-0.85117 13.93145,-1.58077 5.85752,-0.85121 6.33249,-0.85121 0.47492,0 0.47492,-0.12195 -0.79153,-0.36501 -21.68872,-2.06715 -20.89716,-1.70237 -35.7785,-2.55354 -21.37212,-1.0944 -64.59123,-0.85115 -43.21914,0.12194 -79.47254,1.58077 -13.77311,0.60794 -17.73092,0.97278 -3.95785,0.24303 -12.981562,1.70233 -7.915618,1.09432 -10.606942,1.70238 -2.691266,0.48631 -4.274382,1.21595 -2.533013,1.21593 -1.741453,1.58079 0.949893,0.24304 9.498709,1.09436 14.56471,1.58076 31.97898,2.18873 17.57263,0.60801 56.51736,0.60801 19.15573,0 31.979,-0.12209 12.98158,-0.24303 38.62807,-0.9728 z m -173.509799,-3.7695 q 0,-0.36504 3.957771,-2.31038 2.849681,-1.21592 4.907676,-1.70234 2.216397,-0.48638 11.081847,-1.824 9.023805,-1.33753 12.981575,-1.58078 4.11613,-0.36504 17.88924,-1.09434 36.57006,-1.33752 81.21402,-1.45912 44.64393,-0.24307 66.17431,0.85115 21.84707,1.21593 41.00282,3.03993 19.314,1.70237 20.73887,2.55358 2.21633,1.21592 7.75723,-1.33762 1.42482,-0.72959 0.47496,-0.9728 -0.94988,-0.36502 -8.54884,-1.45911 -18.83914,-2.79678 -52.0846,-4.3775 -33.24551,-1.58076 -73.14009,-1.58076 -22.79691,0 -49.70991,0.48638 -26.7547,0.36455 -36.88665,0.8511 -15.6729,0.72965 -28.812767,2.18886 -12.9816,1.33752 -18.522522,2.79667 -3.799482,1.09436 -8.390497,2.79673 -4.432739,1.58085 -4.432739,1.94554 0,0.85121 11.7151,2.5536 0.316323,0 0.633196,-0.36503 z" />
  </g>
</svg>
