<?xml version="1.0" encoding="UTF-8" standalone="no"?>
<!-- Created with Inkscape (http://www.inkscape.org/) -->

<svg
   xmlns:dc="http://purl.org/dc/elements/1.1/"
   xmlns:cc="http://creativecommons.org/ns#"
   xmlns:rdf="http://www.w3.org/1999/02/22-rdf-syntax-ns#"
   xmlns:svg="http://www.w3.org/2000/svg"
   xmlns="http://www.w3.org/2000/svg"
   xmlns:sodipodi="http://sodipodi.sourceforge.net/DTD/sodipodi-0.dtd"
   xmlns:inkscape="http://www.inkscape.org/namespaces/inkscape"
   width="400"
   height="400"
   viewBox="0 0 400 400.00001"
   id="svg4863"
   version="1.1"
   inkscape:version="0.91 r13725"
   sodipodi:docname="bowl8.svg">
  <title
     id="title5430">Hadley Demo placeholder</title>
  <defs
     id="defs4865" />
  <sodipodi:namedview
     id="base"
     pagecolor="#ffffff"
     bordercolor="#666666"
     borderopacity="1.0"
     inkscape:pageopacity="0.0"
     inkscape:pageshadow="2"
     inkscape:zoom="6.354141"
     inkscape:cx="129.97421"
     inkscape:cy="206.54664"
     inkscape:document-units="px"
     inkscape:current-layer="layer1"
     showgrid="false"
     units="px"
     inkscape:window-width="1119"
     inkscape:window-height="776"
     inkscape:window-x="662"
     inkscape:window-y="150"
     inkscape:window-maximized="0" />
  <metadata
     id="metadata4868">
    <rdf:RDF>
      <cc:Work
         rdf:about="">
        <dc:format>image/svg+xml</dc:format>
        <dc:type
           rdf:resource="http://purl.org/dc/dcmitype/StillImage" />
        <dc:title>Hadley Demo placeholder</dc:title>
        <dc:creator>
          <cc:Agent>
            <dc:title>Susan Jensen</dc:title>
          </cc:Agent>
        </dc:creator>
        <dc:date>14 January 2017</dc:date>
      </cc:Work>
    </rdf:RDF>
  </metadata>
  <g
     inkscape:label="Layer 1"
     inkscape:groupmode="layer"
     id="layer1"
     transform="translate(0,-652.36216)">
    <rect
       style="opacity:1;fill:#ffffff;fill-opacity:1;stroke:none;stroke-width:5;stroke-miterlimit:4;stroke-dasharray:none;stroke-dashoffset:0;stroke-opacity:1"
       id="rect6103"
       width="400.65466"
       height="398.69067"
       x="0.65466446"
       y="653.01685" />
    <path
       inkscape:connector-curvature="0"
       id="path4466-1-1-9"
       style="font-style:normal;font-variant:normal;font-weight:normal;font-stretch:normal;font-size:80px;line-height:125%;font-family:'DJ Kitchen';-inkscape-font-specification:'DJ Kitchen';letter-spacing:0px;word-spacing:0px;fill:#ffffff;fill-opacity:1;stroke:#0f0707;stroke-width:5;stroke-linecap:butt;stroke-linejoin:miter;stroke-miterlimit:4;stroke-dasharray:none;stroke-opacity:1"
       d="m 177.16866,984.24209 q -7.92996,-0.36387 -19.7327,-1.33328 -11.61826,-0.96966 -17.70408,-1.93934 -12.3559,-1.57573 -19.17939,-5.09074 -4.05716,-1.93927 -5.3481,-3.99976 -1.29092,-2.06051 -1.65974,-4.36351 -0.73764,-2.06047 -1.10654,-2.42414 -4.42601,-0.96966 -9.77409,-5.81794 -2.766287,-2.0605 -7.561082,-4.12107 -13.278089,-5.57552 -26.371755,-15.51453 -12.356012,-8.84811 -20.470332,-19.27192 -7.376706,-9.6966 -10.696193,-17.09025 -3.319539,-7.39368 -7.561116,-24.12023 -3.135131,-12.24195 -4.794867,-18.1811 -1.659753,-5.81795 -0.737681,-6.90881 1.475364,-1.9393 7.007896,-3.75741 2.212973,-0.72727 5.716901,-1.21214 3.503913,-0.60595 13.831326,-1.81807 24.343147,-2.66661 42.969259,-3.63621 18.810634,-1.09091 54.403174,-1.45447 117.84278,-1.33331 177.77848,3.03023 17.88847,1.21199 28.21585,2.54529 5.90136,0.84842 10.14299,1.21209 5.71693,0.60601 8.66763,3.39377 1.65969,2.06056 0,13.45406 -1.47536,11.39345 -4.79487,21.69604 -2.02859,5.818 -5.34811,12.84798 -3.13509,6.90882 -5.53252,10.78745 -3.31952,5.33312 -9.77417,12.12071 -6.27016,6.7876 -11.43386,10.7875 -4.61042,3.27262 -7.37668,5.69672 -6.08576,5.09073 -23.23667,13.69641 -8.48315,4.24226 -9.22086,5.81796 -0.92205,1.57567 -6.27017,4.96947 -5.53255,3.63627 -6.08579,5.69677 -2.02857,5.81797 -14.75336,8.96929 -6.45466,1.45448 -21.02356,3.27263 -14.569,1.69692 -24.8964,2.06055 -7.74558,0.36386 -22.8678,0.36386 -15.12223,0 -23.42102,-0.36386 z m 44.07584,-1.45453 q 10.32737,-0.36384 24.89634,-2.06049 14.56892,-1.69688 21.02355,-3.39379 12.72483,-3.03017 14.75343,-8.84817 0.55327,-1.93929 3.13509,-3.87862 3.3195,-2.1818 1.65976,-1.45447 -4.05714,0.72721 -17.33527,2.30297 -10.88065,1.21201 -17.15079,1.69687 -6.08577,0.48478 -21.57687,1.21206 -28.21586,1.45454 -48.13297,1.21201 -19.73266,-0.36385 -45.18228,-2.54528 -12.72477,-0.96967 -21.02356,-2.54531 -1.10654,-0.1217 -0.36883,2.30288 1.47531,5.2119 6.82341,7.75727 6.27017,3.27258 19.17939,4.96952 6.08582,0.96964 17.70408,1.93933 11.80273,0.96964 19.73269,1.21207 8.29877,0.36388 21.20801,0.48477 12.90923,0 20.65476,-0.36386 z m 15.49104,-16.969 q 11.98712,-0.72724 16.41317,-1.09084 4.42599,-0.36384 17.70406,-1.93933 11.9871,-1.33333 17.70405,-2.90899 5.16367,-1.21207 6.08579,-2.5453 0.18463,-1.09084 8.48322,-5.21195 16.22874,-7.99968 23.60546,-13.81759 1.47528,-1.21216 3.68834,-2.90899 2.21302,-1.69695 3.87271,-3.03018 4.97933,-3.75742 11.2495,-10.54507 6.45459,-6.90882 9.77418,-12.12066 5.90136,-9.93906 10.88058,-23.6355 2.02861,-6.18156 3.13514,-11.75709 1.29087,-5.69675 2.58181,-15.15089 0.36886,-4.48464 -2.58181,-6.30276 -3.13514,-2.06056 -3.13514,0.24226 0,0.48482 -0.92207,0.48482 -0.92212,0 -2.02862,0.48485 -1.65975,0.72723 -8.11434,1.57571 -6.45463,0.72719 -28.03149,2.90899 l -26.18725,2.78771 -46.8421,1.09085 q -27.84697,0.72732 -44.07572,0.96966 -16.22874,0.12156 -35.59263,0.12156 -29.32231,0 -53.84989,-0.24225 -24.343097,-0.36385 -34.854873,-0.96961 -8.852064,-0.36386 -23.052159,-1.69691 -14.20013,-1.45448 -20.654799,-2.42421 -9.5897,-1.212 -9.958582,-3.63619 -0.368869,-1.33325 1.475344,-2.3029 1.47536,-0.84846 -1.290887,0.12169 -6.270176,1.93928 -5.53253,3.99985 0.368865,0.96971 2.213009,8.12087 1.844193,7.03004 4.057237,15.2721 3.688301,15.02977 7.007842,22.42337 3.319486,7.27244 10.696193,16.72664 7.745539,10.18141 20.839173,19.99918 13.27807,9.69659 27.109405,15.27208 4.241577,1.81809 5.532487,3.15146 1.84421,1.45449 3.68837,2.66652 1.47534,0.96967 3.68834,1.45449 2.213,0.36386 11.80271,1.5757 8.66761,1.09084 14.38457,1.57567 5.71692,0.48479 18.25732,1.21208 13.27804,0.72722 19.54827,0.96965 6.27014,0.1217 23.05219,-0.12156 23.05217,0 38.17442,-0.84846 z m 15.67545,-105.5715 46.84212,-1.09088 22.49887,-2.42415 q 9.40533,-0.84844 16.22874,-1.5757 6.82343,-0.84847 7.37671,-0.84847 0.55324,0 0.55324,-0.12157 -0.92205,-0.36384 -25.26519,-2.06052 -24.3431,-1.69691 -41.67837,-2.54535 -24.89638,-1.09089 -75.24233,-0.84843 -50.34596,0.12156 -92.57755,1.57571 -16.044292,0.60599 -20.654745,0.96966 -4.6105,0.24225 -15.122221,1.69687 -9.220904,1.09081 -12.356027,1.69693 -3.135056,0.48474 -4.979227,1.21204 -2.950707,1.21203 -2.028618,1.57572 1.10653,0.24227 11.065046,1.09085 16.966429,1.5757 37.252302,2.18172 20.47037,0.60606 65.83708,0.60606 22.3145,0 37.25233,-0.1217 15.12224,-0.24225 44.99784,-0.96968 z M 50.289435,856.48965 q 0,-0.36387 4.610408,-2.30298 3.319593,-1.21202 5.716951,-1.69688 2.581881,-0.48482 12.909243,-1.81815 10.51183,-1.33324 15.122237,-1.57572 4.79488,-0.36387 20.839176,-1.09083 42.60046,-1.33322 94.6062,-1.45444 52.00572,-0.24228 77.08645,0.84843 25.44965,1.21203 47.76419,3.03018 22.49888,1.69691 24.15871,2.54539 2.5818,1.21202 9.03639,-1.33333 1.65978,-0.72725 0.55328,-0.96968 -1.10651,-0.36385 -9.95854,-1.45443 -21.94571,-2.78782 -60.67335,-4.36346 -38.72769,-1.5757 -85.20088,-1.5757 -26.55612,0 -57.90707,0.48482 -31.16656,0.36339 -42.96927,0.84837 -18.257352,0.72731 -33.563982,2.18184 -15.122265,1.33324 -21.576885,2.78771 -4.426016,1.09085 -9.774089,2.78776 -5.163699,1.57578 -5.163699,1.93931 0,0.84847 13.646921,2.54541 0.368484,0 0.737609,-0.36386 z" />
  </g>
</svg>
