<?xml version="1.0" encoding="UTF-8" standalone="no"?>
<!-- Created with Inkscape (http://www.inkscape.org/) -->

<svg
   xmlns:dc="http://purl.org/dc/elements/1.1/"
   xmlns:cc="http://creativecommons.org/ns#"
   xmlns:rdf="http://www.w3.org/1999/02/22-rdf-syntax-ns#"
   xmlns:svg="http://www.w3.org/2000/svg"
   xmlns="http://www.w3.org/2000/svg"
   xmlns:sodipodi="http://sodipodi.sourceforge.net/DTD/sodipodi-0.dtd"
   xmlns:inkscape="http://www.inkscape.org/namespaces/inkscape"
   width="400"
   height="400"
   viewBox="0 0 400 400.00001"
   id="svg4863"
   version="1.1"
   inkscape:version="0.91 r13725"
   sodipodi:docname="bowl8-deep.svg">
  <title
     id="title5430">Hadley Demo placeholder</title>
  <defs
     id="defs4865" />
  <sodipodi:namedview
     id="base"
     pagecolor="#ffffff"
     bordercolor="#666666"
     borderopacity="1.0"
     inkscape:pageopacity="0.0"
     inkscape:pageshadow="2"
     inkscape:zoom="1.2889541"
     inkscape:cx="193.45336"
     inkscape:cy="206.54664"
     inkscape:document-units="px"
     inkscape:current-layer="layer1"
     showgrid="false"
     units="px"
     inkscape:window-width="1119"
     inkscape:window-height="776"
     inkscape:window-x="633"
     inkscape:window-y="279"
     inkscape:window-maximized="0" />
  <metadata
     id="metadata4868">
    <rdf:RDF>
      <cc:Work
         rdf:about="">
        <dc:format>image/svg+xml</dc:format>
        <dc:type
           rdf:resource="http://purl.org/dc/dcmitype/StillImage" />
        <dc:title>Hadley Demo placeholder</dc:title>
        <dc:creator>
          <cc:Agent>
            <dc:title>Susan Jensen</dc:title>
          </cc:Agent>
        </dc:creator>
        <dc:date>14 January 2017</dc:date>
      </cc:Work>
    </rdf:RDF>
  </metadata>
  <g
     inkscape:label="Layer 1"
     inkscape:groupmode="layer"
     id="layer1"
     transform="translate(0,-652.36216)">
    <rect
       style="opacity:1;fill:#ffffff;fill-opacity:1;stroke:none;stroke-width:5;stroke-miterlimit:4;stroke-dasharray:none;stroke-dashoffset:0;stroke-opacity:1"
       id="rect6103"
       width="400.65466"
       height="398.69067"
       x="0.65466446"
       y="653.01685" />
    <path
       inkscape:connector-curvature="0"
       id="path4466-1-1-9"
       style="font-style:normal;font-variant:normal;font-weight:normal;font-stretch:normal;font-size:80px;line-height:125%;font-family:'DJ Kitchen';-inkscape-font-specification:'DJ Kitchen';letter-spacing:0px;word-spacing:0px;fill:#ffffff;fill-opacity:1;stroke:#0f0707;stroke-width:5;stroke-linecap:butt;stroke-linejoin:miter;stroke-miterlimit:4;stroke-dasharray:none;stroke-opacity:1"
       d="m 177.21484,983.78744 q -7.91322,-0.45407 -19.69105,-1.66376 -11.59374,-1.21001 -17.66672,-2.42005 -12.32982,-1.9663 -19.13891,-6.35257 -4.0486,-2.41996 -5.33681,-4.99118 -1.2882,-2.57124 -1.65624,-5.44509 -0.73608,-2.57119 -1.10421,-3.02501 -4.41666,-1.21 -9.75346,-7.26002 -2.76045,-2.57124 -7.545122,-5.14256 Q 82.072252,940.52969 69.00622,928.1271 56.676286,917.08582 48.579091,904.07827 41.217953,891.97819 37.905472,882.75188 34.592939,873.52554 30.360314,852.653 27.2318,837.37665 25.575566,829.96537 q -1.65625,-7.26004 -0.736124,-8.62129 1.472251,-2.41999 6.993106,-4.68876 2.208303,-0.90753 5.704836,-1.51259 3.496518,-0.75614 13.802135,-2.26871 24.291771,-3.32758 42.878572,-4.53751 18.770939,-1.36132 54.288359,-1.81499 117.59407,-1.6638 177.40328,3.78133 17.85071,1.5124 28.1563,3.17619 5.8889,1.05871 10.12158,1.51253 5.70487,0.75622 8.64934,4.23498 1.65619,2.5713 0,16.7889 -1.47225,14.21753 -4.78475,27.07381 -2.02431,7.2601 -5.33683,16.0326 -3.12847,8.6213 -5.52084,13.46132 -3.31251,6.65503 -9.75354,15.12506 -6.25693,8.47003 -11.40973,13.46138 -4.60069,4.0838 -7.36111,7.10876 -6.07292,6.35257 -23.18763,17.09133 -8.46525,5.29378 -9.2014,7.26005 -0.9201,1.96623 -6.25694,6.20125 -5.52087,4.53758 -6.07294,7.10882 -2.02429,7.26006 -14.72223,11.1925 -6.44103,1.815 -20.97919,4.08381 -14.53825,2.11753 -24.84385,2.5713 -7.72923,0.45404 -22.81954,0.45404 -15.09031,0 -23.37159,-0.45404 z m 43.98282,-1.81507 q 10.30557,-0.45402 24.8438,-2.57122 14.53817,-2.11748 20.97917,-4.235 12.69798,-3.78126 14.7223,-11.04136 0.5521,-2.41998 3.12847,-4.84001 3.3125,-2.7226 1.65626,-1.81499 -4.04858,0.90747 -17.29869,2.87381 -10.85768,1.51243 -17.11459,2.11747 -6.07292,0.60494 -21.53133,1.51249 -28.15631,1.81508 -48.03139,1.51243 -19.69101,-0.45404 -45.08692,-3.17618 -12.69791,-1.21002 -20.97919,-3.17621 -1.1042,-0.15186 -0.36805,2.87369 1.4722,6.50377 6.80901,9.68006 6.25693,4.08375 19.13891,6.20131 6.07298,1.20998 17.66672,2.42003 11.77782,1.20998 19.69104,1.5125 8.28126,0.45408 21.16325,0.60493 12.88199,0 20.61117,-0.45405 z M 236.656,960.79728 q 11.96183,-0.9075 16.37854,-1.36122 4.41664,-0.45402 17.66669,-2.42003 11.9618,-1.66382 17.66669,-3.63004 5.15277,-1.5125 6.07294,-3.1762 0.18424,-1.36122 8.46532,-6.50383 16.19449,-9.98255 23.55564,-17.24254 1.47217,-1.51262 3.68056,-3.63004 2.20834,-2.11757 3.86453,-3.78127 4.96882,-4.68876 11.22576,-13.15886 6.44097,-8.6213 9.75355,-15.125 5.88891,-12.40264 10.85762,-29.494 2.02433,-7.71378 3.12852,-14.67131 1.28815,-7.10879 2.57636,-18.90632 0.36808,-5.59625 -2.57636,-7.86502 -3.12852,-2.57131 -3.12852,0.30231 0,0.60499 -0.92013,0.60499 -0.92017,0 -2.02433,0.60503 -1.65625,0.90749 -8.09722,1.96628 -6.44101,0.90744 -27.97233,3.63004 l -26.13198,3.47869 -46.74324,1.36124 q -27.7882,0.9076 -43.9827,1.21001 -16.19449,0.15169 -35.51751,0.15169 -29.26043,0 -53.73624,-0.3023 -24.291722,-0.45403 -34.781313,-1.20994 -8.833382,-0.45405 -23.003508,-2.11752 -14.17016,-1.815 -20.611207,-3.0251 -9.569461,-1.51242 -9.937564,-4.53749 -0.368091,-1.66372 1.47223,-2.87371 1.472246,-1.05877 -1.288163,0.15185 -6.256942,2.41997 -5.520853,4.99129 0.368086,1.21007 2.208338,10.13378 1.840301,8.77257 4.048674,19.05758 3.680517,18.75518 6.993052,27.98142 3.312481,9.07505 10.673619,20.87266 7.729192,12.70506 20.795192,24.95635 13.250047,12.10007 27.052191,19.05756 4.232622,2.26873 5.520812,3.9326 1.84032,1.81502 3.68058,3.32747 1.47223,1.21002 3.68056,1.81501 2.20833,0.45405 11.7778,1.96627 8.64932,1.36123 14.35421,1.96623 5.70486,0.60496 18.21879,1.51252 13.25002,0.90747 19.50701,1.20999 6.25691,0.15187 23.00354,-0.15169 23.00352,0 38.09385,-1.05876 z m 15.64237,-131.73939 46.74326,-1.36127 22.45139,-3.02502 q 9.38548,-1.05875 16.19449,-1.96627 6.80903,-1.05878 7.36114,-1.05878 0.55207,0 0.55207,-0.1517 -0.9201,-0.45403 -25.21187,-2.57126 -24.29172,-2.11752 -41.5904,-3.17627 -24.84384,-1.36128 -75.08354,-1.05872 -50.2397,0.15169 -92.38216,1.96627 -16.010432,0.7562 -20.611155,1.21001 -4.600769,0.3023 -15.090305,2.11747 -9.201444,1.36119 -12.32995,2.11755 -3.12844,0.60489 -4.968718,1.51247 -2.94448,1.51245 -2.024337,1.96629 1.104195,0.30232 11.041693,1.36124 16.930622,1.96626 37.173682,2.7225 20.42717,0.75628 65.69813,0.75628 22.26741,0 37.17371,-0.15186 15.09032,-0.3023 44.90287,-1.21004 z M 50.603394,824.36914 q 0,-0.45406 4.600677,-2.87382 3.312587,-1.51244 5.704886,-2.11748 2.576432,-0.60499 12.881998,-2.26882 10.489645,-1.6637 15.090321,-1.96629 4.784761,-0.45406 20.795194,-1.36121 42.51055,-1.66368 94.40654,-1.81495 51.89596,-0.30233 76.92375,1.05873 25.39594,1.51245 47.66339,3.78127 22.4514,2.11752 24.10772,3.17631 2.57635,1.51244 9.01732,-1.66382 1.65628,-0.90751 0.55211,-1.21004 -1.10417,-0.45403 -9.93752,-1.81493 -21.89939,-3.47884 -60.5453,-5.44503 -38.64595,-1.96627 -85.02106,-1.96627 -26.50008,0 -57.78486,0.60499 -31.10078,0.45347 -42.87858,1.05866 -18.218824,0.90759 -33.493149,2.72265 -15.09035,1.66371 -21.531347,3.4787 -4.416675,1.36123 -9.753461,3.47876 -5.152801,1.96636 -5.152801,2.42 0,1.05878 13.618119,3.17634 0.367707,0 0.736053,-0.45405 z" />
  </g>
</svg>
