<?xml version="1.0" encoding="UTF-8" standalone="no"?>
<!-- Created with Inkscape (http://www.inkscape.org/) -->

<svg
   xmlns:dc="http://purl.org/dc/elements/1.1/"
   xmlns:cc="http://creativecommons.org/ns#"
   xmlns:rdf="http://www.w3.org/1999/02/22-rdf-syntax-ns#"
   xmlns:svg="http://www.w3.org/2000/svg"
   xmlns="http://www.w3.org/2000/svg"
   xmlns:sodipodi="http://sodipodi.sourceforge.net/DTD/sodipodi-0.dtd"
   xmlns:inkscape="http://www.inkscape.org/namespaces/inkscape"
   width="400"
   height="400"
   viewBox="0 0 400 400.00001"
   id="svg4863"
   version="1.1"
   inkscape:version="0.91 r13725"
   sodipodi:docname="coaster.svg">
  <title
     id="title5430">Hadley Demo placeholder</title>
  <defs
     id="defs4865" />
  <sodipodi:namedview
     id="base"
     pagecolor="#ffffff"
     bordercolor="#666666"
     borderopacity="1.0"
     inkscape:pageopacity="0.0"
     inkscape:pageshadow="2"
     inkscape:zoom="1.2889541"
     inkscape:cx="193.45336"
     inkscape:cy="206.54664"
     inkscape:document-units="px"
     inkscape:current-layer="layer1"
     showgrid="false"
     units="px"
     inkscape:window-width="1119"
     inkscape:window-height="776"
     inkscape:window-x="799"
     inkscape:window-y="92"
     inkscape:window-maximized="0" />
  <metadata
     id="metadata4868">
    <rdf:RDF>
      <cc:Work
         rdf:about="">
        <dc:format>image/svg+xml</dc:format>
        <dc:type
           rdf:resource="http://purl.org/dc/dcmitype/StillImage" />
        <dc:title>Hadley Demo placeholder</dc:title>
        <dc:creator>
          <cc:Agent>
            <dc:title>Susan Jensen</dc:title>
          </cc:Agent>
        </dc:creator>
        <dc:date>14 January 2017</dc:date>
      </cc:Work>
    </rdf:RDF>
  </metadata>
  <g
     inkscape:label="Layer 1"
     inkscape:groupmode="layer"
     id="layer1"
     transform="translate(0,-652.36216)">
    <rect
       style="opacity:1;fill:#ffffff;fill-opacity:1;stroke:none;stroke-width:5;stroke-miterlimit:4;stroke-dasharray:none;stroke-dashoffset:0;stroke-opacity:1"
       id="rect6103"
       width="400.65466"
       height="398.69067"
       x="0.65466446"
       y="653.01685" />
    <path
       inkscape:connector-curvature="0"
       id="path4478-8"
       style="font-style:normal;font-variant:normal;font-weight:normal;font-stretch:normal;font-size:80px;line-height:125%;font-family:'DJ Kitchen';-inkscape-font-specification:'DJ Kitchen';letter-spacing:0px;word-spacing:0px;fill:#ffffff;fill-opacity:1;stroke:#0f0707;stroke-width:3.05848479;stroke-linecap:butt;stroke-linejoin:miter;stroke-miterlimit:4;stroke-dasharray:none;stroke-opacity:1"
       d="m 195.52096,906.32778 q -7.97313,-0.14314 -16.00809,-0.81114 -7.97314,-0.66799 -15.08098,-3.62628 -5.68628,-1.81313 -11.24892,-3.76943 -5.50086,-1.95627 -11.06351,-3.91255 -2.84314,-1.002 -5.25362,-3.38771 -2.34868,-2.38571 -0.12358,-4.91456 3.21399,-3.29229 8.34399,-4.7237 5.13001,-1.43143 10.1364,-2.62428 6.55157,-1.336 13.35038,-1.71771 6.79879,-0.42944 13.47398,-1.04973 13.16497,-0.81113 26.32991,-0.33399 13.16487,0.42942 26.32981,1.62228 5.99537,0.62028 11.867,1.90857 5.9335,1.24058 11.31083,3.38771 2.65774,1.0497 5.0063,3.29227 2.41058,2.19486 0.43274,4.676 -2.34871,3.14913 -6.79883,4.3897 -4.38826,1.24057 -8.28222,2.81513 -5.62449,1.86086 -11.24897,3.91257 -5.62433,2.05172 -11.55783,3.34 -7.41687,1.24056 -14.95738,1.38371 -7.54049,0.14314 -14.95736,0.14314 z m 13.47399,-7.87284 q 2.2868,0 4.5738,-0.14315 2.34856,-0.19086 4.51183,-1.09741 1.97784,-0.42944 4.94459,-2.00401 2.96675,-1.57456 -1.48338,-2.43342 -18.29492,-4.24657 -38.13506,-1.002 -2.03963,0.33401 -5.9335,1.336 -3.83206,0.95428 0.43265,2.67199 2.5341,1.002 5.19182,1.90857 2.6577,0.85887 5.62445,0.71572 5.06821,0.14315 10.07459,0.14315 5.06821,0 10.19821,-0.0955 z m -27.00979,-0.42942 q -2.90494,-0.38172 -6.11893,-2.52885 -3.15216,-2.19486 2.03965,-3.34 9.02386,-2.14713 18.54219,-2.38571 9.58012,-0.23858 18.85121,1.04971 2.41042,0.42942 7.23143,1.57456 4.88287,1.09743 0.74177,3.67401 -1.23623,0.66799 -4.01753,1.52685 -2.71945,0.81114 1.29793,0.28628 9.08569,-0.76343 18.23325,-1.71771 9.20927,-0.95429 17.73864,-3.81714 3.58478,-0.71571 5.00644,-3.67399 1.42152,-2.95828 -2.34872,-4.676 -5.00644,-2.67199 -10.93994,-3.96026 -5.9335,-1.28829 -11.867,-2.09942 -12.79406,-1.14515 -25.64997,-1.71772 -12.85595,-0.57257 -25.65005,0.14313 -6.30435,0.38172 -12.67051,0.85887 -6.30433,0.47713 -12.60869,1.19285 -5.37722,1.04972 -10.87808,2.33799 -5.50084,1.28828 -9.64193,4.34199 -2.96676,2.48115 -0.12358,4.86686 2.84313,2.338 5.9335,2.95827 8.77663,2.57658 18.17134,3.53086 9.3947,0.90656 18.72761,1.57457 z" />
  </g>
</svg>
