<?xml version="1.0" encoding="UTF-8" standalone="no"?>
<!-- Created with Inkscape (http://www.inkscape.org/) -->

<svg
   xmlns:dc="http://purl.org/dc/elements/1.1/"
   xmlns:cc="http://creativecommons.org/ns#"
   xmlns:rdf="http://www.w3.org/1999/02/22-rdf-syntax-ns#"
   xmlns:svg="http://www.w3.org/2000/svg"
   xmlns="http://www.w3.org/2000/svg"
   xmlns:sodipodi="http://sodipodi.sourceforge.net/DTD/sodipodi-0.dtd"
   xmlns:inkscape="http://www.inkscape.org/namespaces/inkscape"
   width="400"
   height="400"
   viewBox="0 0 400 400.00001"
   id="svg4863"
   version="1.1"
   inkscape:version="0.91 r13725"
   sodipodi:docname="item-generic.svg">
  <title
     id="title5430">Hadley Demo placeholder</title>
  <defs
     id="defs4865" />
  <sodipodi:namedview
     id="base"
     pagecolor="#ffffff"
     bordercolor="#666666"
     borderopacity="1.0"
     inkscape:pageopacity="0.0"
     inkscape:pageshadow="2"
     inkscape:zoom="0.9625"
     inkscape:cx="217.16326"
     inkscape:cy="226.631"
     inkscape:document-units="px"
     inkscape:current-layer="layer1"
     showgrid="false"
     units="px"
     inkscape:window-width="887"
     inkscape:window-height="669"
     inkscape:window-x="703"
     inkscape:window-y="83"
     inkscape:window-maximized="0" />
  <metadata
     id="metadata4868">
    <rdf:RDF>
      <cc:Work
         rdf:about="">
        <dc:format>image/svg+xml</dc:format>
        <dc:type
           rdf:resource="http://purl.org/dc/dcmitype/StillImage" />
        <dc:title>Hadley Demo placeholder</dc:title>
        <dc:creator>
          <cc:Agent>
            <dc:title>Susan Jensen</dc:title>
          </cc:Agent>
        </dc:creator>
        <dc:date>14 January 2017</dc:date>
      </cc:Work>
    </rdf:RDF>
  </metadata>
  <g
     inkscape:label="Layer 1"
     inkscape:groupmode="layer"
     id="layer1"
     transform="translate(0,-652.36216)">
    <rect
       style="opacity:1;fill:#ffffff;fill-opacity:1;stroke:none;stroke-width:5;stroke-miterlimit:4;stroke-dasharray:none;stroke-dashoffset:0;stroke-opacity:1"
       id="rect6103"
       width="400.65466"
       height="398.69067"
       x="0.65466446"
       y="653.01685" />
    <path
       inkscape:connector-curvature="0"
       id="path4466-1-1-9"
       style="font-style:normal;font-variant:normal;font-weight:normal;font-stretch:normal;font-size:80px;line-height:125%;font-family:'DJ Kitchen';-inkscape-font-specification:'DJ Kitchen';letter-spacing:0px;word-spacing:0px;fill:#ffffff;fill-opacity:1;stroke:#0f0707;stroke-width:7.31018496;stroke-linecap:butt;stroke-linejoin:miter;stroke-miterlimit:4;stroke-dasharray:none;stroke-opacity:1"
       d="m 177.31404,1007.9987 q -7.8773,-0.783 -19.60165,-2.869 -11.5411,-2.0866 -17.58651,-4.1732 -12.27384,-3.39069 -19.05201,-10.95444 -4.03022,-4.17301 -5.31258,-8.60686 -1.28235,-4.4339 -1.64872,-9.38959 -0.73274,-4.43381 -1.09919,-5.21637 -4.39662,-2.08655 -9.70918,-12.51929 -2.74792,-4.43388 -7.510867,-8.8679 Q 82.603427,933.40441 69.596719,912.01722 57.322767,892.97747 49.262336,870.54707 41.934621,849.68151 38.637179,833.77153 q -3.297493,-15.91004 -7.5109,-51.90295 -3.11431,-26.34275 -4.763023,-39.12287 -1.64873,-12.51932 -0.732782,-14.86668 1.465566,-4.17307 6.961355,-8.08535 2.198276,-1.56498 5.678933,-2.60834 3.480643,-1.30391 13.739469,-3.9122 24.181478,-5.73813 42.683889,-7.82455 18.68571,-2.34747 54.04187,-3.1298 117.06015,-2.86907 176.59781,6.52058 17.76966,2.60802 28.02846,5.47707 5.86216,1.82567 10.07562,2.60823 5.67897,1.30403 8.61007,7.30286 1.64867,4.434 0,28.95102 -1.46556,24.51692 -4.76303,46.68648 -2.01511,12.51942 -5.31259,27.64683 -3.11427,14.8667 -5.49577,23.2129 -3.29748,11.47604 -9.70926,26.08187 -6.22852,14.60585 -11.35793,23.21301 -4.5798,7.04216 -7.32769,12.25844 -6.04534,10.95446 -23.08235,29.47253 -8.42681,9.12868 -9.15962,12.51934 -0.91592,3.39059 -6.22853,10.69352 -5.4958,7.82468 -6.04537,12.25855 -2.0151,12.51936 -14.65538,19.30051 -6.41179,3.12981 -20.88393,7.04217 -14.47225,3.6515 -24.73106,4.434 -7.69414,0.783 -22.71593,0.783 -15.0218,0 -23.26547,-0.783 z m 43.78312,-3.1299 q 10.25878,-0.783 24.73099,-4.4339 14.47217,-3.6514 20.88393,-7.30288 12.64032,-6.52045 14.65545,-19.03988 0.54959,-4.17304 3.11427,-8.34618 3.29745,-4.69489 1.64874,-3.12979 -4.0302,1.56484 -17.22015,4.95563 -10.80839,2.60806 -17.03688,3.6514 -6.04536,1.04317 -21.43358,2.60816 -28.02847,3.12994 -47.8133,2.60806 -19.60161,-0.78295 -44.88222,-5.47704 -12.64026,-2.08658 -20.88393,-5.47711 -1.09919,-0.26188 -0.36638,4.95543 1.46551,11.21519 6.77809,16.69243 6.22853,7.04208 19.05202,10.69363 6.0454,2.08651 17.5865,4.17314 11.72434,2.0865 19.60164,2.6082 8.24365,0.783 21.06716,1.0431 12.8235,0 20.51759,-0.7829 z m 15.38816,-36.51465 q 11.90751,-1.56491 16.30416,-2.34732 4.3966,-0.78293 17.58648,-4.17313 11.9075,-2.86912 17.58648,-6.25969 5.12937,-2.60819 6.04537,-5.47709 0.1834,-2.34732 8.42688,-11.2153 16.12096,-17.21405 23.44869,-29.73328 1.46548,-2.60838 3.66385,-6.25969 2.19832,-3.65157 3.84699,-6.52048 4.94626,-8.08537 11.17479,-22.69133 6.41172,-14.8667 9.70926,-26.08176 5.86217,-21.3873 10.80832,-50.85989 2.01514,-13.30174 3.11432,-25.29941 1.2823,-12.25851 2.56466,-32.60234 0.36641,-9.65024 -2.56466,-13.56255 -3.11432,-4.434 -3.11432,0.52131 0,1.04325 -0.91594,1.04325 -0.916,0 -2.01515,1.04332 -1.64873,1.56489 -8.06045,3.39068 -6.41177,1.5648 -27.84533,6.25969 l -26.01333,5.99872 -46.53101,2.34734 q -27.66203,1.56508 -43.783,2.08655 -16.12096,0.26158 -35.35625,0.26158 -29.12758,0 -53.49226,-0.52128 Q 96.89244,746.9191 86.450475,745.6156 77.6572,744.83263 63.551411,741.96411 49.445588,738.8343 43.033786,736.7476 q -9.526012,-2.60804 -9.892444,-7.82452 -0.36642,-2.86894 1.465546,-4.95547 1.465561,-1.82576 -1.282314,0.26185 -6.228534,4.17303 -5.495787,8.60705 0.366415,2.08667 2.198311,17.47484 1.831946,15.12754 4.030292,32.86316 3.663806,32.34171 6.961301,48.25158 3.297441,15.64915 10.625157,35.9931 7.694099,21.9088 20.700775,43.0351 13.189887,20.86554 26.929364,32.86312 4.213403,3.91224 5.495743,6.78145 1.83196,3.12983 3.66388,5.73793 1.46554,2.08658 3.66384,3.12983 2.1983,0.78297 11.72433,3.39066 8.61004,2.34732 14.28903,3.3906 5.67896,1.04319 18.13607,2.6082 13.18986,1.56487 19.41845,2.08654 6.2285,0.26188 22.89909,-0.26158 22.89908,0 37.9209,-1.82575 z m 15.57134,-227.17331 46.53103,-2.3474 22.34945,-5.21639 q 9.34287,-1.82571 16.12096,-3.39066 6.77811,-1.82577 7.32772,-1.82577 0.54957,0 0.54957,-0.2616 -0.91593,-0.78293 -25.0974,-4.43392 -24.18143,-3.65148 -41.40157,-5.47719 -24.73104,-2.34743 -74.74263,-1.82569 -50.0116,0.26158 -91.96272,3.39068 -15.937737,1.304 -20.517571,2.08656 -4.57988,0.52128 -15.02179,3.65139 -9.159666,2.34726 -12.273968,3.65153 -3.114235,1.04309 -4.946158,2.60812 -2.931111,2.6081 -2.015146,3.3907 1.099181,0.52133 10.99156,2.34734 16.853751,3.39066 37.004903,4.69472 20.33442,1.30415 65.39984,1.30415 22.1663,0 37.00492,-0.26188 15.02181,-0.52129 44.699,-2.0866 z M 51.277448,733.09549 q 0,-0.78299 4.579789,-4.95565 3.297547,-2.60808 5.678983,-3.65142 2.564734,-1.04326 12.82351,-3.91238 10.442018,-2.86892 15.021806,-3.3907 4.763036,-0.78299 20.700774,-2.34729 42.31754,-2.86889 93.9779,-3.12973 51.66034,-0.52135 76.5745,1.82569 25.28063,2.6081 47.44697,6.52047 22.34946,3.65148 23.99827,5.47728 2.56465,2.60808 8.97638,-2.86912 1.64875,-1.56493 0.5496,-2.0866 -1.09916,-0.78295 -9.8924,-3.1297 -21.79996,-5.99895 -60.2704,-9.38948 -38.47049,-3.39066 -84.63504,-3.39066 -26.37976,0 -57.5225,1.04325 -30.95957,0.78196 -42.6839,1.82556 -18.136096,1.56506 -33.341071,4.69498 -15.021834,2.86892 -21.433587,5.99871 -4.396622,2.34734 -9.709177,5.99883 -5.129406,3.39083 -5.129406,4.17309 0,1.82577 13.556289,5.47732 0.366036,0 0.73271,-0.78297 z" />
    <text
       xml:space="preserve"
       style="font-style:normal;font-weight:normal;font-size:40px;line-height:125%;font-family:sans-serif;letter-spacing:0px;word-spacing:0px;fill:#000000;fill-opacity:1;stroke:none;stroke-width:1px;stroke-linecap:butt;stroke-linejoin:miter;stroke-opacity:1"
       x="62.337658"
       y="841.45306"
       id="text4227"
       sodipodi:linespacing="125%"><tspan
         sodipodi:role="line"
         id="tspan4229"
         x="62.337658"
         y="841.45306"
         style="font-style:normal;font-variant:normal;font-weight:normal;font-stretch:normal;font-size:60px;font-family:Hensa;-inkscape-font-specification:Hensa">Generic Item</tspan></text>
  </g>
</svg>
