<?xml version="1.0" encoding="UTF-8" standalone="no"?>
<!-- Created with Inkscape (http://www.inkscape.org/) -->

<svg
   xmlns:dc="http://purl.org/dc/elements/1.1/"
   xmlns:cc="http://creativecommons.org/ns#"
   xmlns:rdf="http://www.w3.org/1999/02/22-rdf-syntax-ns#"
   xmlns:svg="http://www.w3.org/2000/svg"
   xmlns="http://www.w3.org/2000/svg"
   xmlns:sodipodi="http://sodipodi.sourceforge.net/DTD/sodipodi-0.dtd"
   xmlns:inkscape="http://www.inkscape.org/namespaces/inkscape"
   width="400"
   height="400"
   viewBox="0 0 400 400.00001"
   id="svg4863"
   version="1.1"
   inkscape:version="0.91 r13725"
   sodipodi:docname="mug-flare.svg">
  <title
     id="title5430">Hadley Demo placeholder</title>
  <defs
     id="defs4865" />
  <sodipodi:namedview
     id="base"
     pagecolor="#ffffff"
     bordercolor="#666666"
     borderopacity="1.0"
     inkscape:pageopacity="0.0"
     inkscape:pageshadow="2"
     inkscape:zoom="2.5779083"
     inkscape:cx="193.45336"
     inkscape:cy="206.54664"
     inkscape:document-units="px"
     inkscape:current-layer="layer1"
     showgrid="false"
     units="px"
     inkscape:window-width="1119"
     inkscape:window-height="776"
     inkscape:window-x="279"
     inkscape:window-y="112"
     inkscape:window-maximized="0" />
  <metadata
     id="metadata4868">
    <rdf:RDF>
      <cc:Work
         rdf:about="">
        <dc:format>image/svg+xml</dc:format>
        <dc:type
           rdf:resource="http://purl.org/dc/dcmitype/StillImage" />
        <dc:title>Hadley Demo placeholder</dc:title>
        <dc:creator>
          <cc:Agent>
            <dc:title>Susan Jensen</dc:title>
          </cc:Agent>
        </dc:creator>
        <dc:date>14 January 2017</dc:date>
      </cc:Work>
    </rdf:RDF>
  </metadata>
  <g
     inkscape:label="Layer 1"
     inkscape:groupmode="layer"
     id="layer1"
     transform="translate(0,-652.36216)">
    <rect
       style="opacity:1;fill:#ffffff;fill-opacity:1;stroke:none;stroke-width:5;stroke-miterlimit:4;stroke-dasharray:none;stroke-dashoffset:0;stroke-opacity:1"
       id="rect6103"
       width="400.65466"
       height="398.69067"
       x="0.65466446"
       y="653.01685" />
    <path
       inkscape:connector-curvature="0"
       id="path4476-7-1"
       style="font-style:normal;font-variant:normal;font-weight:normal;font-stretch:normal;font-size:80px;line-height:125%;font-family:'DJ Kitchen';-inkscape-font-specification:'DJ Kitchen';letter-spacing:0px;word-spacing:0px;fill:#ffffff;fill-opacity:1;stroke:#0f0707;stroke-width:5;stroke-linecap:butt;stroke-linejoin:miter;stroke-miterlimit:4;stroke-dasharray:none;stroke-opacity:1"
       d="m 199.11398,950.47666 q -17.95333,0.67721 -32.41573,-2.3703 -11.09614,-2.53962 -17.45458,-7.95746 -1.74549,-1.18517 -2.11952,-2.53963 0,-1.35445 -1.37142,-5.0792 -0.87274,-3.21687 -1.99479,-7.78817 -1.12212,-4.74062 -1.87018,-8.80398 -0.49867,-2.3703 -1.37142,-7.78813 -0.74803,-5.58719 -0.74803,-7.78818 -0.49871,-1.52376 -0.37405,-1.52376 0,0 -0.12479,-0.50793 -0.12478,-0.50793 -0.12478,-1.18516 0,-2.5396 -0.99741,-8.63467 -0.62339,-6.09507 -1.24676,-14.39117 -0.62337,-8.46536 -0.87274,-15.57627 -1.12206,-27.76647 -1.49611,-44.18929 -0.37404,-16.42283 0,-37.07835 0,-8.12679 0,-14.56043 0.12478,-6.43373 0.37405,-7.28024 0.37404,-5.92579 6.60782,-8.9733 5.98445,-3.04756 21.81823,-5.75648 4.239,-0.50788 8.60264,-0.84654 4.36365,-0.50791 11.47018,-0.50791 5.98444,0.33851 10.34809,0.50791 4.48833,0.16949 8.22858,0.50795 2.11951,0.50794 7.23122,0.84654 9.60003,1.18514 16.08315,2.87819 6.60786,1.69311 11.9689,3.72479 7.72993,3.72477 9.10132,9.65053 0,1.01589 0,3.55545 0,2.53963 0,10.6664 -0.24925,10.32775 -0.24925,12.69806 0.12479,2.201 0.74803,2.87822 0.37406,0.50795 1.62083,0.50795 3.61559,0 6.60778,-1.52377 3.74028,-1.69308 8.10396,-2.70891 5.61042,-1.18517 9.47532,-0.16948 9.72472,2.87828 14.7118,14.72977 1.87011,3.21684 2.74281,9.14264 1.37146,12.19014 -1.12204,25.05751 -2.61819,11.17427 -7.60525,20.48622 -3.11691,5.07919 -6.35847,9.31192 -3.24156,4.23267 -9.10129,10.66636 -12.21826,13.88322 -21.56896,26.58131 -4.36362,5.92573 -5.36104,6.60296 -2.36886,1.35444 -1.74545,1.35444 0,-1.52376 -0.37403,3.04757 -0.9974,6.7723 -4.98702,19.80897 -2.86753,9.14263 -3.74028,10.83568 -1.2468,1.86241 -3.36624,3.04757 -1.49611,1.35446 -5.48573,3.21679 -3.36626,1.52383 -5.61043,1.52383 -6.1091,1.18512 -14.58705,1.69305 z m 37.27804,-55.36358 q -0.24925,2.20102 0.62339,0.84656 1.49611,-2.53961 0.24925,-3.21687 -0.62337,0 -0.87274,2.37031 z m 2.86756,-4.40199 0,1.18517 0.62337,0 q 1.37143,0 4.61299,-3.38617 6.35847,-5.75646 14.08837,-14.56046 7.72989,-8.80401 11.59483,-14.39113 4.61302,-6.94159 7.97927,-13.88323 0.62337,-1.52378 1.12208,-2.87823 0.62337,-1.35446 0.62337,-1.35446 0,-1.18517 -1.62079,2.37031 -3.36622,8.1268 -9.84935,16.59214 -2.99222,3.7248 -11.22083,13.03666 -8.22858,9.14264 -10.84681,11.17432 -3.86493,3.38617 -5.1117,3.38617 -1.12208,0 -1.37143,0.84651 -0.87274,2.37033 -0.62337,1.8624 z m -1.99482,-1.18516 q 0,1.01587 0.74806,0.3385 0.74805,-0.84657 0.99739,-2.03168 0.12478,-1.69312 -0.62337,-1.69312 -1.99482,0 -1.12208,3.38617 z m 6.48312,-11.17427 q 0.12479,0 0.37407,0.16949 0.24924,0 0.62337,0 0.37402,0.3385 1.74548,-1.01586 1.49611,-1.35445 8.35324,-8.63467 11.34548,-11.85155 17.70396,-21.67136 6.60784,-10.49709 8.2286,-18.79316 1.9948,-8.9733 0.87275,-15.7456 -1.24677,-6.26441 -4.86236,-10.66638 -4.11434,-4.90989 -8.35327,-4.90989 -4.48834,0 -6.85716,1.1851 -5.36107,2.53963 -7.10652,6.43371 -4.23902,7.28025 -5.23643,13.37531 l -0.37402,1.35445 -1.37139,1.01584 q -2.49354,1.35448 -2.49354,5.75646 0,3.21683 -1.24678,20.31694 -0.37402,2.53956 -0.62333,5.92572 -0.24957,3.21686 -0.37406,5.24854 -0.24924,2.87822 -0.87274,11.34363 -0.49872,5.92576 -0.24925,6.60299 0,0.84654 0.49869,0.84654 0,0 0.12478,0.16949 0.24925,0.16949 0.49872,0.50795 0.74805,0.50792 0.99739,1.18516 z m 41.7664,-64.50622 q 0.87277,3.38614 0.87277,0 0,-2.70893 -1.2468,-6.60298 -1.87014,-5.58716 -5.23639,-10.15844 -1.74545,-2.20102 -2.61819,-1.86239 -0.87271,0.33851 1.6208,3.89407 3.98962,5.58713 5.73507,11.85152 0.99743,3.38614 0.87274,2.87822 z m -41.89105,-15.5763 q 0,1.86239 0.37403,1.86239 0.49868,0 0.49868,-0.67723 0,-0.84654 0.49872,-0.84654 1.37142,-1.35445 0.37399,-2.8782 -0.62333,-1.01587 -1.62077,0.16949 -0.37402,1.01583 -0.12478,2.37028 z m 2.11948,0.3385 q 0,1.35446 0.37403,1.35446 0.62337,0 3.36629,-1.69308 8.10388,-4.74062 16.20781,-4.74062 0.87274,0 1.12205,-0.67722 0.24924,-0.33852 0.24924,-1.18515 0,-0.50792 -2.11947,-0.16948 -8.72734,0 -15.4598,4.23274 -0.49872,0.50787 -1.24681,0.67722 -0.74802,0.16948 -1.12204,0.33848 l -1.12209,0.33852 -0.24957,1.52376 z m -5.61041,-2.70893 q 0.87274,2.201 1.37145,2.201 0.62337,0 0.62337,-1.01584 0,-1.01585 -0.87274,-2.20102 -0.74806,-0.16949 -1.49611,-3.21682 -2.36886,-5.75647 -2.86754,-4.06335 -0.49871,1.1851 3.24157,8.29603 z m -56.60283,-25.73475 q 6.10917,0.50794 16.33257,0.50794 10.22341,-0.16949 14.8364,-0.84656 15.45979,-1.35446 21.94295,-4.90991 4.36365,-2.03168 5.98445,-3.89409 2.36882,-2.37027 -0.12479,-5.2485 -2.86757,-2.87827 -8.3533,-5.41784 -3.36625,-1.18516 -4.98702,-1.69311 -1.62076,-0.67722 -5.7351,-1.69305 -8.72729,-2.03168 -16.20782,-2.87825 -7.48056,-1.01583 -17.20531,-1.52377 -13.58962,-0.33849 -22.81563,0.84653 -9.22601,1.01586 -18.5767,3.55549 -5.61039,2.0317 -8.10393,3.72476 -3.86497,3.38613 -1.87014,6.26436 2.24417,3.72479 15.83383,7.95747 11.84423,4.0634 29.04944,5.24853 z" />
  </g>
</svg>
