<?xml version="1.0" encoding="UTF-8" standalone="no"?>
<!-- Created with Inkscape (http://www.inkscape.org/) -->

<svg
   xmlns:dc="http://purl.org/dc/elements/1.1/"
   xmlns:cc="http://creativecommons.org/ns#"
   xmlns:rdf="http://www.w3.org/1999/02/22-rdf-syntax-ns#"
   xmlns:svg="http://www.w3.org/2000/svg"
   xmlns="http://www.w3.org/2000/svg"
   xmlns:sodipodi="http://sodipodi.sourceforge.net/DTD/sodipodi-0.dtd"
   xmlns:inkscape="http://www.inkscape.org/namespaces/inkscape"
   width="400"
   height="400"
   viewBox="0 0 400 400.00001"
   id="svg4863"
   version="1.1"
   inkscape:version="0.91 r13725"
   sodipodi:docname="mug8.svg">
  <title
     id="title5430">Hadley Demo placeholder</title>
  <defs
     id="defs4865" />
  <sodipodi:namedview
     id="base"
     pagecolor="#ffffff"
     bordercolor="#666666"
     borderopacity="1.0"
     inkscape:pageopacity="0.0"
     inkscape:pageshadow="2"
     inkscape:zoom="2.5779083"
     inkscape:cx="193.45336"
     inkscape:cy="206.54664"
     inkscape:document-units="px"
     inkscape:current-layer="layer1"
     showgrid="false"
     units="px"
     inkscape:window-width="1119"
     inkscape:window-height="776"
     inkscape:window-x="799"
     inkscape:window-y="279"
     inkscape:window-maximized="0" />
  <metadata
     id="metadata4868">
    <rdf:RDF>
      <cc:Work
         rdf:about="">
        <dc:format>image/svg+xml</dc:format>
        <dc:type
           rdf:resource="http://purl.org/dc/dcmitype/StillImage" />
        <dc:title>Hadley Demo placeholder</dc:title>
        <dc:creator>
          <cc:Agent>
            <dc:title>Susan Jensen</dc:title>
          </cc:Agent>
        </dc:creator>
        <dc:date>14 January 2017</dc:date>
      </cc:Work>
    </rdf:RDF>
  </metadata>
  <g
     inkscape:label="Layer 1"
     inkscape:groupmode="layer"
     id="layer1"
     transform="translate(0,-652.36216)">
    <rect
       style="opacity:1;fill:#ffffff;fill-opacity:1;stroke:none;stroke-width:5;stroke-miterlimit:4;stroke-dasharray:none;stroke-dashoffset:0;stroke-opacity:1"
       id="rect6103"
       width="400.65466"
       height="398.69067"
       x="0.65466446"
       y="653.01685" />
    <path
       inkscape:connector-curvature="0"
       id="path4476-7-1"
       style="font-style:normal;font-variant:normal;font-weight:normal;font-stretch:normal;font-size:80px;line-height:125%;font-family:'DJ Kitchen';-inkscape-font-specification:'DJ Kitchen';letter-spacing:0px;word-spacing:0px;fill:#ffffff;fill-opacity:1;stroke:#0f0707;stroke-width:5;stroke-linecap:butt;stroke-linejoin:miter;stroke-miterlimit:4;stroke-dasharray:none;stroke-opacity:1"
       d="m 200.14026,947.29039 q -16.5747,0.47847 -29.92652,-1.6747 -10.24406,-1.79432 -16.11424,-5.62219 -1.61145,-0.83737 -1.95676,-1.79434 0,-0.95696 -1.2661,-3.58861 -0.80573,-2.27283 -1.84161,-5.5026 -1.03595,-3.3494 -1.72657,-6.2203 -0.46038,-1.67469 -1.26611,-5.50256 -0.69059,-3.94753 -0.69059,-5.5026 -0.46041,-1.07659 -0.34533,-1.07659 0,0 -0.1152,-0.35887 -0.1152,-0.35886 -0.1152,-0.83734 0,-1.79432 -0.92081,-6.10068 -0.57553,-4.30637 -1.15103,-10.16783 -0.5755,-5.98104 -0.80572,-11.00514 -1.0359,-19.6179 -1.38122,-31.22116 -0.34532,-11.60326 0,-26.19704 0,-5.74184 0,-10.28742 0.11519,-4.54563 0.34532,-5.14372 0.34532,-4.18676 6.1004,-6.33993 5.52491,-2.15319 20.1428,-4.06713 3.91349,-0.35884 7.94205,-0.59811 4.02856,-0.35885 10.58937,-0.35885 5.5249,0.23916 9.55346,0.35885 4.14367,0.11975 7.5967,0.35888 1.95676,0.35887 6.67594,0.59811 8.86284,0.83734 14.84812,2.03353 6.10044,1.19624 11.0498,2.63169 7.13634,2.63166 8.40243,6.81841 0,0.71776 0,2.51204 0,1.79432 0,7.53616 -0.23011,7.29688 -0.23011,8.97158 0.11521,1.55508 0.69058,2.03355 0.34534,0.35889 1.49637,0.35889 3.33794,0 6.10036,-1.0766 3.45307,-1.19621 7.48166,-1.91392 5.17959,-0.83736 8.74771,-0.11975 8.97795,2.0336 13.58207,10.40706 1.7265,2.2728 2.53219,6.45957 1.26614,8.61273 -1.03588,17.70394 -2.41714,7.89498 -7.02124,14.47418 -2.87756,3.58861 -5.8702,6.57916 -2.99264,2.99052 -8.4024,7.53613 -11.28001,9.80894 -19.91267,18.78056 -4.02853,4.18671 -4.94937,4.6652 -2.18695,0.95695 -1.61141,0.95695 0,-1.07658 -0.34531,2.15321 -0.9208,4.78485 -4.60406,13.99568 -2.64733,6.45957 -3.45307,7.65576 -1.15105,1.31585 -3.10774,2.1532 -1.38122,0.95697 -5.06448,2.27277 -3.10776,1.07663 -5.1796,1.07663 -5.63998,0.83733 -13.46691,1.19619 z m 34.41544,-39.11616 q -0.23011,1.55509 0.57552,0.59813 1.38123,-1.79432 0.23011,-2.27282 -0.5755,0 -0.80573,1.67469 z m 2.64736,-3.11014 0,0.83735 0.5755,0 q 1.26612,0 4.25875,-2.39243 5.87021,-4.06713 13.00652,-10.28744 7.13631,-6.22032 10.70447,-10.1678 4.25878,-4.90445 7.36654,-9.80895 0.57549,-1.07659 1.03591,-2.03355 0.5755,-0.95698 0.5755,-0.95698 0,-0.83736 -1.49633,1.67471 -3.10773,5.74184 -9.09302,11.72288 -2.76245,2.63169 -10.35917,9.21082 -7.5967,6.45957 -10.01388,7.89501 -3.56814,2.39244 -4.71917,2.39244 -1.03592,0 -1.26612,0.59809 -0.80573,1.67471 -0.5755,1.31585 z m -1.84164,-0.83735 q 0,0.71774 0.69062,0.23915 0.69061,-0.59813 0.92079,-1.43545 0.1152,-1.19624 -0.57549,-1.19624 -1.84164,0 -1.03592,2.39244 z m 5.98528,-7.89499 q 0.11521,0 0.34535,0.11975 0.23009,0 0.57549,0 0.3453,0.23917 1.61145,-0.71774 1.38122,-0.95696 7.71179,-6.10067 10.47426,-8.3735 16.34447,-15.31151 6.10042,-7.41653 7.59672,-13.27798 1.84162,-6.33992 0.80573,-11.12477 -1.15103,-4.42601 -4.48898,-7.53614 -3.79839,-3.469 -7.71182,-3.469 -4.14367,0 -6.33059,0.83731 -4.94939,1.79433 -6.5608,4.54562 -3.91351,5.14373 -4.83433,9.45009 l -0.3453,0.95697 -1.26608,0.71772 q -2.30206,0.95698 -2.30206,4.06712 0,2.27279 -1.15104,14.35457 -0.3453,1.79429 -0.57546,4.18672 -0.23041,2.27281 -0.34534,3.70826 -0.2301,2.03355 -0.80572,8.01465 -0.46042,4.18673 -0.23012,4.66522 0,0.59811 0.4604,0.59811 0,0 0.1152,0.11975 0.23011,0.11974 0.46042,0.35888 0.69061,0.35886 0.92081,0.83735 z m 38.55914,-45.57572 q 0.80575,2.39242 0.80575,0 0,-1.91395 -1.15106,-4.66522 -1.72652,-3.94751 -4.83428,-7.17727 -1.61141,-1.55509 -2.41714,-1.31584 -0.8057,0.23917 1.49634,2.75129 3.68326,3.94748 5.29467,8.37348 0.92084,2.39241 0.80572,2.03356 z m -38.67421,-11.00516 q 0,1.31583 0.3453,1.31583 0.46038,0 0.46038,-0.47848 0,-0.59811 0.46043,-0.59811 1.26611,-0.95696 0.34527,-2.03353 -0.57547,-0.71776 -1.49631,0.11974 -0.3453,0.71771 -0.11519,1.67468 z m 1.95672,0.23916 q 0,0.95697 0.34531,0.95697 0.57549,0 3.10778,-1.19622 7.48158,-3.34939 14.96321,-3.34939 0.80572,0 1.03589,-0.47849 0.2301,-0.23917 0.2301,-0.83735 0,-0.35885 -1.95671,-0.11974 -8.05717,0 -14.27264,2.99058 -0.46042,0.35882 -1.15107,0.47847 -0.69058,0.11975 -1.03588,0.23915 l -1.03592,0.23917 -0.2304,1.07659 z m -5.17959,-1.91395 q 0.80573,1.55508 1.26613,1.55508 0.57551,0 0.57551,-0.71773 0,-0.71773 -0.80572,-1.55509 -0.69062,-0.11975 -1.38123,-2.27279 -2.18695,-4.06712 -2.64734,-2.87088 -0.46041,0.83731 2.99265,5.86141 z m -52.25628,-18.18243 q 5.64005,0.35888 15.07839,0.35888 9.43835,-0.11975 13.69711,-0.59812 14.27263,-0.95697 20.25794,-3.46901 4.02857,-1.43545 5.5249,-2.7513 2.18692,-1.67467 -0.11521,-3.70823 -2.64736,-2.0336 -7.71184,-3.82788 -3.10776,-0.83736 -4.60407,-1.19625 -1.4963,-0.47847 -5.2947,-1.19619 -8.05711,-1.43544 -14.96322,-2.03358 -6.90612,-0.71771 -15.8841,-1.07659 -12.54607,-0.23915 -21.0636,0.5981 -8.51755,0.71774 -17.15019,2.51207 -5.17957,1.43547 -7.48163,2.63166 -3.56818,2.39241 -1.72654,4.42597 2.07185,2.63169 14.61795,5.62222 10.93471,2.87092 26.81872,3.70825 z" />
  </g>
</svg>
