<?xml version="1.0" encoding="UTF-8" standalone="no"?>
<!-- Created with Inkscape (http://www.inkscape.org/) -->

<svg
   xmlns:dc="http://purl.org/dc/elements/1.1/"
   xmlns:cc="http://creativecommons.org/ns#"
   xmlns:rdf="http://www.w3.org/1999/02/22-rdf-syntax-ns#"
   xmlns:svg="http://www.w3.org/2000/svg"
   xmlns="http://www.w3.org/2000/svg"
   xmlns:sodipodi="http://sodipodi.sourceforge.net/DTD/sodipodi-0.dtd"
   xmlns:inkscape="http://www.inkscape.org/namespaces/inkscape"
   width="400"
   height="400"
   viewBox="0 0 400 400.00001"
   id="svg4863"
   version="1.1"
   inkscape:version="0.91 r13725"
   sodipodi:docname="plate6.svg">
  <title
     id="title5430">Hadley Demo placeholder</title>
  <defs
     id="defs4865" />
  <sodipodi:namedview
     id="base"
     pagecolor="#ffffff"
     bordercolor="#666666"
     borderopacity="1.0"
     inkscape:pageopacity="0.0"
     inkscape:pageshadow="2"
     inkscape:zoom="2.5779083"
     inkscape:cx="193.45336"
     inkscape:cy="206.54664"
     inkscape:document-units="px"
     inkscape:current-layer="layer1"
     showgrid="false"
     units="px"
     inkscape:window-width="1119"
     inkscape:window-height="776"
     inkscape:window-x="260"
     inkscape:window-y="68"
     inkscape:window-maximized="0" />
  <metadata
     id="metadata4868">
    <rdf:RDF>
      <cc:Work
         rdf:about="">
        <dc:format>image/svg+xml</dc:format>
        <dc:type
           rdf:resource="http://purl.org/dc/dcmitype/StillImage" />
        <dc:title>Hadley Demo placeholder</dc:title>
        <dc:creator>
          <cc:Agent>
            <dc:title>Susan Jensen</dc:title>
          </cc:Agent>
        </dc:creator>
        <dc:date>14 January 2017</dc:date>
      </cc:Work>
    </rdf:RDF>
  </metadata>
  <g
     inkscape:label="Layer 1"
     inkscape:groupmode="layer"
     id="layer1"
     transform="translate(0,-652.36216)">
    <rect
       style="opacity:1;fill:#ffffff;fill-opacity:1;stroke:none;stroke-width:5;stroke-miterlimit:4;stroke-dasharray:none;stroke-dashoffset:0;stroke-opacity:1"
       id="rect6103"
       width="400.65466"
       height="398.69067"
       x="0.65466446"
       y="653.01685" />
    <path
       inkscape:connector-curvature="0"
       id="path4478-8"
       style="font-style:normal;font-variant:normal;font-weight:normal;font-stretch:normal;font-size:80px;line-height:125%;font-family:'DJ Kitchen';-inkscape-font-specification:'DJ Kitchen';letter-spacing:0px;word-spacing:0px;fill:#ffffff;fill-opacity:1;stroke:#0f0707;stroke-width:3.76683211;stroke-linecap:butt;stroke-linejoin:miter;stroke-miterlimit:4;stroke-dasharray:none;stroke-opacity:1"
       d="m 189.19867,909.67697 q -11.02996,-0.15695 -22.14545,-0.88939 -11.02998,-0.73243 -20.8629,-3.97609 -7.86635,-1.98803 -15.56165,-4.13304 -7.60984,-2.145 -15.30517,-4.28999 -3.93317,-1.09865 -7.26781,-3.7145 -3.24914,-2.61585 -0.17096,-5.38865 4.44621,-3.60988 11.543,-5.17937 7.09682,-1.56952 14.02261,-2.87743 9.06339,-1.46487 18.4688,-1.88341 9.40538,-0.47086 18.63978,-1.15099 18.21231,-0.88938 36.42457,-0.3662 18.21216,0.47084 36.42442,1.77876 8.29394,0.68012 16.4167,2.09269 8.20836,1.36025 15.64731,3.7145 3.67669,1.15096 6.92567,3.60986 3.33478,2.40659 0.59865,5.12708 -3.24918,3.4529 -9.40545,4.81315 -6.07067,1.36024 -11.45754,3.08669 -7.78087,2.04037 -15.56173,4.28999 -7.78065,2.24964 -15.98899,3.6622 -10.26044,1.36023 -20.69191,1.51719 -10.43145,0.15695 -20.69188,0.15695 z m 18.63979,-8.6323 q 3.16354,0 6.32736,-0.15696 3.24898,-0.20926 6.24162,-1.20327 2.73614,-0.47086 6.8403,-2.19733 4.10418,-1.72644 -2.05209,-2.66816 -25.30903,-4.65621 -52.75571,-1.09865 -2.8216,0.36623 -8.20834,1.46488 -5.30124,1.04633 0.59852,2.92974 3.50566,1.09866 7.18232,2.09267 3.67664,0.94173 7.78082,0.78477 7.01131,0.15696 13.93709,0.15696 7.01132,0 14.10811,-0.10468 z m -37.3651,-0.47084 q -4.01867,-0.41854 -8.46488,-2.7728 -4.36066,-2.40658 2.82164,-3.6622 12.48353,-2.35425 25.6511,-2.61584 13.25305,-0.26159 26.0786,1.15097 3.33455,0.47085 10.00389,1.72645 6.75492,1.20329 1.02617,4.02843 -1.7102,0.73242 -5.55782,1.67413 -3.76207,0.88939 1.79555,0.3139 12.56906,-0.83707 25.22371,-1.88342 12.74002,-1.04634 24.53947,-4.18535 4.95916,-0.78476 6.92587,-4.02841 1.96652,-3.24364 -3.24919,-5.12706 -6.92587,-2.92975 -15.13422,-4.3423 -8.20835,-1.41255 -16.4167,-2.30193 -17.69919,-1.25562 -35.48394,-1.88342 -17.78482,-0.62781 -35.48406,0.15693 -8.72138,0.41854 -17.52827,0.94173 -8.72135,0.52315 -17.44275,1.30791 -7.4388,1.15099 -15.04864,2.56352 -7.60981,1.41256 -13.33856,4.76085 -4.10419,2.7205 -0.17096,5.33634 3.93316,2.56354 8.20835,3.24364 12.14151,2.82513 25.13807,3.87146 12.99654,0.99402 25.90761,1.72647 z" />
  </g>
</svg>
