<?xml version="1.0" encoding="UTF-8" standalone="no"?>
<!-- Created with Inkscape (http://www.inkscape.org/) -->

<svg
   xmlns:dc="http://purl.org/dc/elements/1.1/"
   xmlns:cc="http://creativecommons.org/ns#"
   xmlns:rdf="http://www.w3.org/1999/02/22-rdf-syntax-ns#"
   xmlns:svg="http://www.w3.org/2000/svg"
   xmlns="http://www.w3.org/2000/svg"
   xmlns:sodipodi="http://sodipodi.sourceforge.net/DTD/sodipodi-0.dtd"
   xmlns:inkscape="http://www.inkscape.org/namespaces/inkscape"
   width="400"
   height="400"
   viewBox="0 0 400 400.00001"
   id="svg4863"
   version="1.1"
   inkscape:version="0.91 r13725"
   sodipodi:docname="teapot.svg">
  <title
     id="title5430">Hadley Demo placeholder</title>
  <defs
     id="defs4865" />
  <sodipodi:namedview
     id="base"
     pagecolor="#ffffff"
     bordercolor="#666666"
     borderopacity="1.0"
     inkscape:pageopacity="0.0"
     inkscape:pageshadow="2"
     inkscape:zoom="0.77207567"
     inkscape:cx="121.69468"
     inkscape:cy="200"
     inkscape:document-units="px"
     inkscape:current-layer="layer1"
     showgrid="false"
     units="px"
     inkscape:window-width="875"
     inkscape:window-height="734"
     inkscape:window-x="662"
     inkscape:window-y="150"
     inkscape:window-maximized="0" />
  <metadata
     id="metadata4868">
    <rdf:RDF>
      <cc:Work
         rdf:about="">
        <dc:format>image/svg+xml</dc:format>
        <dc:type
           rdf:resource="http://purl.org/dc/dcmitype/StillImage" />
        <dc:title>Hadley Demo placeholder</dc:title>
        <dc:creator>
          <cc:Agent>
            <dc:title>Susan Jensen</dc:title>
          </cc:Agent>
        </dc:creator>
        <dc:date>14 January 2017</dc:date>
      </cc:Work>
    </rdf:RDF>
  </metadata>
  <g
     inkscape:label="Layer 1"
     inkscape:groupmode="layer"
     id="layer1"
     transform="translate(0,-652.36216)">
    <rect
       style="opacity:1;fill:#ffffff;fill-opacity:1;stroke:none;stroke-width:5;stroke-miterlimit:4;stroke-dasharray:none;stroke-dashoffset:0;stroke-opacity:1"
       id="rect6103"
       width="400.65466"
       height="398.69067"
       x="2.2172"
       y="653.5257" />
    <path
       inkscape:connector-curvature="0"
       id="path4462-6"
       style="font-style:normal;font-variant:normal;font-weight:normal;font-stretch:normal;font-size:80px;line-height:125%;font-family:'DJ Kitchen';-inkscape-font-specification:'DJ Kitchen';letter-spacing:0px;word-spacing:0px;fill:#ffffff;fill-opacity:1;stroke:#0f0707;stroke-width:5;stroke-linecap:butt;stroke-linejoin:miter;stroke-miterlimit:4;stroke-dasharray:none;stroke-opacity:1"
       d="m 178.66734,994.66757 q -15.53983,-1.64072 -20.66637,-3.46377 -4.64596,-1.0938 -12.33578,-3.82836 -7.68981,-2.91685 -10.57352,-4.01065 -8.97145,-3.64606 -9.93265,-4.92219 -1.1214,-1.64072 -1.1214,-2.36993 -0.64082,-2.00535 -3.36433,-4.9222 -2.8837,-3.28148 -6.24795,-5.83371 -2.40307,-1.82305 -3.68471,-3.28148 -1.28164,-1.45842 -5.12654,-6.38057 -2.40304,-2.73456 -4.96631,-6.19834 -2.40308,-3.46377 -3.84491,-5.28678 -9.772506,-14.03733 -14.578621,-27.16316 -0.961247,-2.18764 -2.082648,-4.9222 -1.121442,-2.91685 -1.602065,-4.55757 -1.76226,-3.46377 -4.165297,-13.30817 -2.082689,-8.02134 -3.364325,-14.58425 -0.961207,-5.8337 -1.121401,-6.38058 0,-0.36449 -0.320307,-3.8284 -0.320306,-3.64607 -0.480623,-8.02134 -1.441831,-17.31877 -3.043896,-32.63224 -1.281636,-7.65676 -2.403037,-12.76125 -0.801053,-2.18763 -1.602066,-4.73986 -0.801012,-2.73456 -1.281636,-4.55761 -0.640818,-1.45843 -3.043896,-8.02134 -2.403036,-6.74521 -7.209192,-13.85505 -5.126544,-7.65671 -11.694919,-12.21427 -3.043896,-2.00535 -12.495972,-3.64607 -8.17044,-1.09384 -8.811258,-2.18764 -0.640818,-0.54692 -0.160358,-1.64076 0.160358,-1.0938 1.922454,-2.73451 1.44183,-1.27614 9.131647,-5.46912 7.689816,-4.37528 10.092894,-5.46908 5.286738,-1.82305 7.85001,-1.64076 0.480624,0.18248 4.645921,1.64076 4.165337,1.45843 9.772505,3.09915 8.490829,3.09914 13.136749,4.73986 4.645921,1.64076 12.656166,4.9222 12.976551,5.65141 16.501071,6.92754 3.36429,2.0053 5.76737,2.36993 l 1.76221,0.18248 2.72351,-2.18764 q 10.25309,-9.29748 20.82657,-12.21433 2.40308,-0.54687 2.56327,-0.36449 0.32031,0.36449 1.92245,-0.54692 0.64082,-0.54692 6.88881,-3.28143 4.96635,-2.36998 5.60717,-2.36998 0.48058,-0.18248 1.76221,-3.28143 4.96635,-11.8497 14.098,-21.5118 4.80616,-4.55757 9.45208,-7.29213 4.80615,-2.91685 10.73371,-4.19294 4.96635,-0.91155 9.93266,-0.18248 8.17044,1.45843 14.41842,5.28683 4.80612,3.09914 8.97146,7.839 4.0051,4.73991 9.13164,14.40197 0.96125,1.82305 2.24289,4.37527 1.28163,2.55227 2.40303,4.19299 l 2.40308,4.19298 3.36429,1.82301 q 4.32553,2.00535 5.44697,2.73456 1.12144,0.54692 2.40308,1.27614 1.28163,1.09379 2.56327,2.73451 l 0.96121,1.27613 1.44183,0 q 1.44187,0 2.8837,0.54692 1.44183,0.72922 8.49083,6.19829 7.20919,5.46912 9.61227,7.47447 3.20409,3.46372 5.12654,1.64071 2.8837,-2.36993 5.28674,-6.01599 3.20409,-3.64606 7.049,-6.92755 2.08269,-1.45842 4.00514,-3.28143 6.56837,-5.10449 13.93776,-6.92754 18.74396,-5.10449 33.00215,1.27613 6.8888,3.46377 11.85511,6.38062 7.68982,5.28678 14.73881,13.49042 6.24799,7.83905 9.61227,16.77189 4.80616,13.49046 4.80616,31.17386 0,12.03199 -3.68471,23.69939 -4.32554,13.85504 -10.41329,22.24102 -2.40307,3.28143 -9.77246,10.39127 -6.08779,5.8337 -14.89905,10.93819 -3.84491,2.18764 -10.25309,4.9222 -6.24794,2.73456 -20.50617,8.20363 -12.49593,4.9222 -15.2194,4.9222 -0.96125,0 -1.12144,0.54692 0,0 -2.40308,4.19294 -3.36428,6.19833 -4.96635,8.75055 -2.88366,5.46912 -7.85001,12.76125 -4.96635,7.10983 -8.33063,11.48511 -10.0929,12.39662 -18.74392,17.86569 -1.44183,1.09384 -3.68471,2.55227 -2.08265,1.45842 -3.52448,2.55222 -1.76226,1.45843 -5.12655,4.01069 -2.56327,1.45843 -2.8837,4.55757 -0.48062,1.27614 -1.28164,2.00535 -2.72346,3.09914 -11.37453,5.8337 -3.20409,1.45843 -10.41328,2.18764 -9.13164,1.45842 -20.02555,2.0053 -10.73371,0.36449 -18.1031,-0.18248 z m 54.62977,-10.57356 q 2.72342,-0.91156 2.88366,-0.91156 0.64082,-0.36448 0.80101,-0.36448 0,-0.36449 0.48063,-0.36449 0.64081,0 0.80101,-1.64072 0.48062,-0.91151 -0.32031,-0.72921 -0.16036,0 -2.08269,0.9115 -3.20409,1.45843 -4.48572,1.64076 -2.24285,0.72922 -0.96121,2.0053 0.80097,0.36449 2.88366,-0.54687 z m -96.28294,-4.9222 q 0.16036,-0.36449 -0.32031,-1.27614 -1.44187,-1.45842 -5.44701,-2.36993 -1.1214,-0.18247 -1.28164,-0.54692 -0.48058,-0.36449 -3.04385,-1.09379 -0.64082,-0.18248 -1.1214,-0.36449 -0.48063,-0.18248 -0.48063,-0.18248 0,0.54692 0.16036,1.27613 0.16036,1.0938 1.76226,1.64072 1.60211,0.72921 3.0439,1.27613 5.12654,2.18764 6.08775,2.18764 0.3203,0 0.64082,-0.54692 z m 161.32595,-67.26987 q 0,-1.09384 -0.48063,-5.46912 -0.3203,-5.10449 -0.64081,-5.46907 -0.96121,-0.54692 -1.12141,5.10449 -0.16035,5.8337 1.28164,5.8337 0.32031,0 0.64082,0 0.32031,0 0.32031,0 z m 15.21944,-13.49046 q 6.24798,-2.18764 16.82146,-7.10984 10.57351,-5.10449 14.73881,-8.38592 13.13679,-10.57361 17.46228,-16.95419 8.01025,-12.03203 9.77251,-21.32951 1.28163,-6.56291 1.1214,-6.01599 2.08269,-12.03199 -0.32031,-26.25166 -0.32031,-2.18764 -2.40308,-8.20363 -2.08265,-6.19833 -3.04389,-8.38597 -3.84491,-7.47442 -14.098,-16.04268 -5.44693,-4.01065 -12.49593,-7.47442 -5.28674,-2.18764 -13.77761,-3.46378 -4.96635,-0.72921 -7.36938,-0.36449 -11.0541,1.27614 -18.26334,8.56827 -3.20409,3.64606 -5.44693,8.02134 -1.28164,2.36993 -1.76226,10.93819 -0.80101,5.28678 -0.96121,6.01599 -0.48062,0.91151 -0.48062,1.64072 0,1.09384 1.76226,4.19298 6.88876,14.76655 10.89391,32.26766 2.72346,12.39662 2.72346,24.61094 0,4.37528 -1.12144,13.67275 -1.12144,7.65672 -2.24284,12.39662 -1.44187,6.016 -0.32031,7.10979 2.08265,2.36998 8.81126,0.54692 z M 71.009914,860.12783 q 0.480623,-0.54692 3.043895,-9.11518 6.408181,-19.68875 10.893907,-31.17386 6.888764,-17.50111 10.092854,-23.69939 2.72351,-5.28678 6.72857,-11.48512 4.00514,-6.38062 5.9276,-8.02134 l 1.28163,-1.09379 -0.96125,-0.18248 q -1.76226,-0.36449 -5.28673,4.7399 -8.33064,11.8497 -13.937807,25.70474 -5.767362,14.03734 -9.131647,23.15252 -3.20409,9.11514 -6.888804,20.60025 -2.563272,8.38597 -2.403077,10.02669 0,0.72921 0,1.27613 0.160358,0.54688 0.160358,0.54688 0,0 0.160358,-0.36449 0.160358,-0.36449 0.320307,-0.91151 z m 28.997046,-45.57582 q 1.28164,-1.0938 1.60202,-1.45843 0.32031,-0.9115 2.24289,0.54692 0.9612,1.45843 1.60202,1.0938 1.76222,-1.64072 2.08265,-2.55222 1.12144,-3.82836 2.08269,-6.016 2.08265,-5.10449 2.08265,-6.56291 0,-2.36998 3.20409,-6.56292 0.64082,-0.72921 2.56327,-3.46377 1.44183,-1.82305 1.44183,-3.28148 0,-1.27609 -0.64082,-2.0053 -0.80101,-0.54692 -1.28163,-0.54692 -1.12144,0 -3.36429,2.36993 -4.32553,4.37528 -6.40818,4.37528 -1.12144,0 -4.0051,3.28148 -2.56327,2.91685 -2.56327,5.28678 0,0.54692 -0.48063,1.64071 -0.64081,1.82306 -0.64081,1.82306 0,1.64072 -2.08265,6.38058 -0.96125,2.18764 -1.12144,4.19298 0,1.64072 0.64081,2.18764 1.28164,1.27613 3.0439,-0.72921 z m 192.40556,-7.29213 q -0.80097,-1.45843 -0.80097,-2.18764 0,-0.54692 -1.44187,-0.54692 -1.76222,0 -4.16534,-2.36993 -1.92245,-1.27613 -1.92245,0 -0.32031,1.45843 5.12654,4.37528 1.44187,1.09384 2.56327,1.82305 1.12148,0.54688 1.12148,0.54688 0.16036,0 -0.48066,-1.64072 z m -14.73881,-20.41796 0,-2.00535 -1.44179,0 q -1.44188,0 -1.12149,0.54693 0,0.18247 0,0.54692 0.16036,0.36449 0.16036,0.54692 0.48067,3.09914 1.7623,2.55222 0.32031,0 0.64082,-2.18764 z m -147.38815,-2.00535 q 0.96121,-0.54687 2.08269,-1.823 1.1214,-1.45843 3.36428,-3.82836 2.40308,-2.55227 3.84491,-3.09919 0.48063,-0.54687 1.44187,-1.09379 1.1214,-1.09385 1.76222,-1.09385 2.08269,0 -3.68467,-1.27608 -3.84491,-0.72922 -4.32553,-0.54693 -2.56327,2.18764 -5.28674,6.19829 -1.76226,2.91685 -1.76226,4.9222 0,2.00534 1.28164,2.00534 0,0 1.28163,-0.36449 z m 99.96761,-6.19828 q 8.97145,-0.36449 11.53473,-0.54692 2.56327,-0.18248 5.44693,-0.91151 7.52966,-1.27613 8.8113,-2.91685 1.28163,-1.27613 0.64082,-3.64606 -0.80106,-0.91151 -1.76231,-1.64072 -2.56327,-1.09384 -1.28163,0.18248 1.12148,1.64072 0.64082,2.91685 -1.76222,2.36993 -9.77243,3.64606 -3.36432,0.54693 -14.73881,0.91151 -21.46743,1.09384 -33.64297,0.72921 -12.17554,-0.36449 -32.36129,-2.55222 -8.17044,-0.72921 -11.53472,-1.09384 -3.36433,-0.54692 -4.80612,-0.91151 l -1.60206,-0.54692 0.80101,-0.36449 q 3.20409,-1.64076 8.81126,-8.20368 4.80615,-5.65136 4.80615,-5.8337 0,-0.9115 -1.28163,-0.9115 -0.80106,0 -2.40308,1.27613 -1.76226,1.0938 -4.0051,1.64072 -0.80106,0.36449 -6.72861,3.28148 -4.64596,2.73451 -6.56842,3.09914 -3.36428,0.54692 -3.36428,1.82301 0.3203,2.00535 -2.08269,0.54692 -2.08265,-1.45842 -1.60203,-3.09914 0.80106,-2.91685 2.88366,-4.19299 0.32031,-0.36449 -2.08264,0.54693 -4.48573,2.55222 -4.48573,4.73985 0,3.09919 5.60717,4.55762 0.64082,0 0.80101,-0.72921 0,-0.72922 0.64082,-0.72922 0.16036,0.36449 5.12654,1.27609 4.48573,1.27614 4.80616,1.27614 0,0.36449 -0.32031,0.36449 -0.48062,0.54687 -0.9612,0.72921 -0.48059,0.54687 2.08268,1.27609 2.56328,0.54692 11.69492,1.64076 9.29184,1.0938 17.94291,1.82301 12.81636,1.09384 24.19089,1.27613 11.37449,0 30.11845,-0.72921 z M 24.069963,763.50711 q 6.568374,-2.18764 13.617372,-7.10983 3.52452,-2.18764 3.52452,-3.28144 0,-0.36449 -1.922454,0.18248 -1.44183,0.54692 -9.131647,4.9222 -7.689816,4.37527 -8.490869,4.9222 -0.961207,1.09379 0.480624,1.09379 0,0 0.640818,-0.18248 0.640818,-0.18247 1.281636,-0.54692 z m 209.707727,-7.29213 q 0,0 -0.48058,-1.09379 l -0.64082,-1.09384 -2.40312,0 q -2.56327,0 -3.84491,-0.36449 -1.92245,-0.54693 -2.72342,-0.54693 -1.60207,-0.36448 -1.7623,-0.54692 -0.32031,-0.18247 -1.60203,-0.18247 -1.1214,0.18247 -0.64082,0.54692 0.48063,0.54687 0.48063,0.72921 0,0.54687 0.3203,0.9115 0.96117,1.27614 5.2867,1.64072 1.92246,0.18248 4.80612,0.18248 3.04389,0 3.20409,-0.18248 z m -66.9655,-4.37527 q 0.9612,0 1.60202,-0.18248 0.64082,-0.18248 0.80106,-0.18248 0.48058,-0.18248 0,-0.54692 -0.32031,-0.18248 -0.64082,-0.9115 l -0.16036,-0.72922 -2.56327,0 q -2.88366,0 -3.36429,-0.18248 l -0.9612,-0.18247 0.48058,-1.27614 q 0.64082,-0.9115 0.48062,-1.45842 -0.9612,-0.72922 -1.76226,0 -0.3203,0.36449 -0.80101,0.91155 -0.32031,0.36449 -0.80101,0.9115 -1.28164,1.0938 -1.44183,1.64072 -0.32031,0.9115 0.3203,1.64072 1.60207,0.91155 1.60207,0.91155 1.60202,0.36449 7.20919,-0.36449 z m 53.0277,-1.45843 q 0,0 -0.32031,-2.91685 -0.64082,-2.55222 -0.64082,-3.28143 -0.3203,-1.09385 -2.8837,-6.56292 0,0 -4.00514,-4.55761 -2.40304,-2.55223 -5.60713,-4.37528 -4.00514,-2.36993 -9.93266,-3.28143 -8.97145,-0.72922 -15.86029,3.09914 -3.04386,1.64072 -3.84491,2.55227 -3.68467,3.82835 -5.44689,8.20363 -1.92246,4.37528 -1.60211,7.65671 0.32031,2.73456 4.00514,2.00535 3.84491,-0.54692 8.01021,-0.91151 4.32553,-0.36449 11.53472,-0.36449 15.53983,0 24.19089,2.73456 2.08265,0.54692 2.40308,0 z" />
  </g>
</svg>
